<svg width="19" height="20" viewBox="0 0 19 20" fill="none" xmlns="http://www.w3.org/2000/svg">
<path d="M17.0313 13.3959L14.3854 13.0938C13.75 13.0209 13.125 13.2397 12.6771 13.6876L10.7604 15.6042C7.81251 14.1042 5.39584 11.698 3.89584 8.73967L5.82293 6.81258C6.27084 6.36466 6.48959 5.73967 6.41668 5.10425L6.11459 2.47925C5.98959 1.42717 5.10418 0.635498 4.04168 0.635498H2.2396C1.06251 0.635498 0.0833452 1.61466 0.156262 2.79175C0.708345 11.6876 7.82293 18.7917 16.7083 19.3438C17.8854 19.4167 18.8646 18.4376 18.8646 17.2605V15.4584C18.875 14.4063 18.0833 13.5209 17.0313 13.3959Z" fill="white"/>
</svg>
