<svg width="19" height="13" viewBox="0 0 19 13" fill="none" xmlns="http://www.w3.org/2000/svg">
<path d="M8.5 12.75H10.5C11.05 12.75 11.5 12.2812 11.5 11.7083C11.5 11.1354 11.05 10.6667 10.5 10.6667H8.5C7.95 10.6667 7.5 11.1354 7.5 11.7083C7.5 12.2812 7.95 12.75 8.5 12.75ZM0.5 1.29167C0.5 1.86458 0.95 2.33333 1.5 2.33333H17.5C18.05 2.33333 18.5 1.86458 18.5 1.29167C18.5 0.71875 18.05 0.25 17.5 0.25H1.5C0.95 0.25 0.5 0.71875 0.5 1.29167ZM4.5 7.54167H14.5C15.05 7.54167 15.5 7.07292 15.5 6.5C15.5 5.92708 15.05 5.45833 14.5 5.45833H4.5C3.95 5.45833 3.5 5.92708 3.5 6.5C3.5 7.07292 3.95 7.54167 4.5 7.54167Z" fill="#282828"/>
</svg>
