<svg width="152" height="45" viewBox="0 0 152 45" fill="none" xmlns="http://www.w3.org/2000/svg">
<path d="M33.6729 36.7803C33.6729 39.0356 33.6729 41.291 33.6724 43.5463C33.6724 43.7185 33.6706 43.891 33.6616 44.0627C33.6536 44.2153 33.5851 44.2967 33.4448 44.3323C33.3224 44.3634 33.1997 44.3952 33.0755 44.4171C32.0148 44.6043 30.9468 44.6854 29.8686 44.6414C29.4578 44.6246 29.0488 44.604 28.6431 44.5323C28.4248 44.4936 28.212 44.4394 28.0039 44.3641C27.3111 44.1131 26.8341 43.6422 26.5498 42.9719C26.3825 42.5771 26.3073 42.1622 26.2801 41.7387C26.2632 41.4734 26.2635 41.2065 26.2632 40.9404C26.2622 37.62 26.2617 34.2995 26.2637 30.9794C26.2637 30.6807 26.2434 30.3864 26.1839 30.0928C26.0292 29.33 25.5963 28.7907 24.8807 28.4735C24.5163 28.3119 24.1309 28.2265 23.7363 28.1939C23.3267 28.1603 22.917 28.1725 22.5074 28.231C22.1315 28.2847 21.7592 28.348 21.3948 28.4546C21.0297 28.5612 20.683 28.7082 20.3508 28.8932C20.1527 29.0033 20.0413 29.145 20.0595 29.3803C20.0716 29.536 20.0611 29.6935 20.0611 29.8499C20.0611 34.4389 20.0611 39.028 20.0605 43.617C20.0605 43.7892 20.0572 43.9615 20.0511 44.1334C20.048 44.2207 19.992 44.2825 19.9143 44.3074C19.7947 44.3461 19.6718 44.3776 19.5479 44.398C18.8625 44.5097 18.1779 44.6185 17.48 44.6381C16.9265 44.6536 16.3743 44.6488 15.8219 44.6262C15.4105 44.6094 15.0036 44.5498 14.6087 44.4351C14.4132 44.3784 14.2192 44.3028 14.0388 44.209C13.4168 43.8846 13.0406 43.3578 12.8325 42.7058C12.7661 42.4977 12.7284 42.2815 12.6976 42.0633C12.6314 41.596 12.6268 41.1276 12.6268 40.6576C12.6283 36.5541 12.6296 32.4505 12.6244 28.347C12.6239 27.9688 12.6593 27.5963 12.7186 27.2257C12.7917 26.7696 12.977 26.3575 13.2595 25.9887C13.5674 25.5865 13.931 25.2403 14.3385 24.9393C15.0264 24.4313 15.7762 24.0322 16.5655 23.7041C17.706 23.2296 18.8897 22.9007 20.108 22.6954C20.4655 22.6352 20.829 22.6117 21.1888 22.5639C22.1 22.4431 23.0165 22.4446 23.932 22.4619C25.1668 22.4851 26.3874 22.6303 27.5836 22.9485C28.5507 23.206 29.4686 23.5764 30.3112 24.1172C31.2534 24.7218 32.0355 25.484 32.6157 26.4425C33.0845 27.2171 33.3775 28.0542 33.5335 28.9425C33.6395 29.5467 33.6718 30.1549 33.6718 30.7664C33.6718 32.7712 33.6718 34.776 33.6718 36.7808L33.6729 36.7803Z" fill="white"/>
<path d="M73.0792 44.995C72.779 44.995 72.4782 45.0075 72.1788 44.993C70.4137 44.907 68.7024 44.5738 67.0785 43.864C65.6261 43.2291 64.3616 42.3355 63.3401 41.1241C62.2678 39.8527 61.5555 38.3992 61.1663 36.79C61.0079 36.1347 60.9189 35.4695 60.8519 34.7979C60.7801 34.078 60.7909 33.3594 60.8027 32.6402C60.8088 32.2658 60.8509 31.8903 60.8999 31.5184C61.0064 30.71 61.1683 29.9122 61.4544 29.1453C62.0856 27.4531 63.0497 25.9879 64.4694 24.8378C65.4596 24.0358 66.5686 23.4494 67.7864 23.0684C68.5552 22.8277 69.3396 22.6578 70.1414 22.5566C70.9913 22.4492 71.8403 22.4408 72.6935 22.4833C73.6283 22.5298 74.5441 22.683 75.4391 22.9513C76.8152 23.3642 78.0745 23.9986 79.1748 24.9243C80.5915 26.1164 81.5224 27.6119 81.9843 29.3941C82.2016 30.2333 82.2894 31.088 82.2586 31.9537C82.2457 32.3156 82.1757 32.6695 82.0507 33.0093C81.8727 33.4937 81.5635 33.8826 81.1419 34.1846C80.6731 34.5204 80.1488 34.731 79.5864 34.845C79.2156 34.9202 78.8407 34.9754 78.4664 35.0327C77.9049 35.1184 77.3425 35.1978 76.7805 35.2807C76.2812 35.3545 75.7819 35.4293 75.2825 35.5041C74.7209 35.588 74.1592 35.6732 73.5975 35.7564C73.0982 35.8304 72.5983 35.9017 72.099 35.9757C71.5527 36.0568 71.0072 36.141 70.4609 36.2217C69.9302 36.3 69.3988 36.3735 68.8682 36.4534C68.6811 36.4816 68.4959 36.5208 68.3104 36.5574C68.2503 36.5691 68.2041 36.6424 68.219 36.7019C68.238 36.7772 68.2549 36.8546 68.2855 36.9255C68.539 37.516 68.9334 37.9957 69.4512 38.3783C69.9123 38.7189 70.4273 38.9535 70.9687 39.1336C71.6153 39.3485 72.2768 39.4897 72.9614 39.5113C73.0715 39.5149 73.1818 39.5284 73.2914 39.5421C73.5277 39.5721 73.7638 39.5678 74.0009 39.549C74.221 39.5314 74.4417 39.5154 74.6624 39.5057C75.2004 39.4821 75.7316 39.3994 76.2561 39.2877C77.2155 39.0835 78.1461 38.7856 79.0357 38.3709C79.2072 38.2911 79.3721 38.1982 79.5417 38.1145C79.6472 38.0624 79.7565 38.0552 79.8556 38.1277C80.6402 38.7016 81.145 39.4582 81.2999 40.4149C81.3751 40.8794 81.3459 41.353 81.2099 41.8117C81.0546 42.3342 80.7778 42.7832 80.3729 43.1525C80.1037 43.398 79.8025 43.5974 79.4784 43.7643C78.7029 44.1632 77.887 44.4512 77.0315 44.6246C76.3194 44.7691 75.5997 44.8538 74.8761 44.9235C74.2772 44.9813 73.6796 45.0024 73.0792 44.995ZM71.7695 27.8034C71.4477 27.78 71.1198 27.8123 70.7927 27.8797C69.7383 28.0972 68.8974 28.6266 68.3045 29.5279C67.9429 30.0773 67.7697 30.6912 67.6673 31.3299C67.6576 31.3912 67.6625 31.4548 67.663 31.5174C67.6637 31.6247 67.7353 31.7033 67.8334 31.697C67.9591 31.6888 68.0851 31.6782 68.2095 31.6591C68.5213 31.6115 68.832 31.5581 69.1435 31.508C69.6108 31.4327 70.0786 31.3597 70.5456 31.2831C71.2148 31.1732 71.8832 31.0595 72.5524 30.9499C73.2529 30.8351 73.9536 30.7232 74.6544 30.6095C74.8099 30.5843 74.9656 30.5586 75.1199 30.5278C75.2202 30.5077 75.2779 30.4126 75.2592 30.3172C75.2099 30.0695 75.1211 29.8357 75.0005 29.6141C74.8348 29.3094 74.6257 29.0359 74.3934 28.7774C73.9678 28.3038 73.4343 28.0252 72.8154 27.8894C72.4739 27.8144 72.1303 27.78 71.7695 27.8034Z" fill="white"/>
<path d="M93.4026 36.6812C93.4026 38.9834 93.4029 41.2853 93.4019 43.5874C93.4019 43.7594 93.3965 43.9316 93.3865 44.1033C93.3795 44.2206 93.3046 44.2997 93.1827 44.3312C93.0757 44.3589 92.969 44.3895 92.8599 44.4063C92.1738 44.5128 91.4892 44.6217 90.7913 44.639C90.2378 44.6528 89.6859 44.6472 89.1334 44.6238C88.7701 44.6085 88.4114 44.5497 88.0585 44.4622C86.9814 44.1951 86.3599 43.4915 86.1143 42.4412C86.0468 42.1524 86.0006 41.8586 86.0071 41.558C86.0137 41.2451 85.9948 40.9317 85.9948 40.6188C85.9937 36.6097 85.9937 32.6007 85.9948 28.5919C85.9948 28.31 86.004 28.0284 86.0101 27.7466C86.0284 26.9259 86.3386 26.2287 86.9046 25.6339C87.3865 25.128 87.9459 24.7238 88.5489 24.3755C89.4403 23.8609 90.3918 23.4839 91.3745 23.1812C92.2813 22.9021 93.2084 22.7106 94.1498 22.5971C95.3432 22.4532 96.5415 22.4262 97.7432 22.4791C98.3913 22.5076 99.0339 22.5755 99.6723 22.6783C100.848 22.8678 101.98 23.198 103.037 23.7538C103.955 24.2361 104.756 24.8616 105.414 25.6629C106.126 26.5301 106.582 27.5179 106.817 28.6064C106.953 29.235 107.018 29.8719 107.017 30.5173C107.013 34.9334 107.015 39.3497 107.015 43.7657C107.015 44.3495 107.047 44.2941 106.497 44.3976C105.831 44.5233 105.159 44.6182 104.477 44.636C103.924 44.6505 103.372 44.651 102.819 44.6273C102.408 44.6095 102.003 44.5502 101.605 44.4439C100.631 44.1832 100.041 43.5447 99.7687 42.5994C99.6951 42.3435 99.6497 42.0807 99.6443 41.8126C99.6366 41.4369 99.6173 41.0614 99.6171 40.6857C99.6148 37.585 99.6171 34.4844 99.614 31.3835C99.6137 31.0395 99.6055 30.6938 99.5709 30.3517C99.4819 29.4705 99.0413 28.8282 98.2133 28.4644C97.8628 28.3105 97.492 28.2307 97.1143 28.1961C96.705 28.1587 96.2947 28.1678 95.8857 28.2266C95.4946 28.2828 95.1062 28.3469 94.7269 28.4578C94.331 28.5736 93.9579 28.7394 93.6061 28.9536C93.4899 29.0246 93.4203 29.1225 93.4149 29.2584C93.4083 29.4303 93.4026 29.6025 93.4026 29.7748C93.4019 32.0769 93.4026 34.3791 93.4026 36.6812Z" fill="white"/>
<path d="M47.6801 44.8099C47.3799 44.8099 47.0784 44.828 46.7797 44.8064C46.0215 44.7511 45.2738 44.6311 44.5617 44.3533C44.357 44.2734 44.1573 44.1755 43.9667 44.0666C43.5317 43.8183 43.1979 43.4696 42.9662 43.027C42.6822 42.4846 42.4312 41.927 42.1936 41.3636C41.4744 39.6587 40.8231 37.9281 40.1911 36.1899C39.4468 34.1429 38.7383 32.0837 38.0794 30.0082C37.5246 28.2611 37.0096 26.5026 36.5703 24.7229C36.5365 24.5861 36.507 24.4485 36.4759 24.3111C36.4531 24.2104 36.4803 24.1226 36.5593 24.0575C36.7048 23.9374 36.8469 23.8112 37.0032 23.7064C37.745 23.2086 38.5464 22.8599 39.4424 22.7342C40.2512 22.6207 41.0479 22.6536 41.8372 22.8622C41.8677 22.8703 41.8985 22.8769 41.9288 22.8858C42.7745 23.1359 43.4058 23.6416 43.8122 24.4233C44.038 24.8578 44.2004 25.3146 44.3223 25.7855C44.8014 27.6349 45.282 29.4837 45.7479 31.3364C46.2827 33.4625 46.838 35.583 47.4174 37.6977C47.4669 37.8788 47.5143 38.0607 47.5672 38.241C47.5798 38.2843 47.6075 38.3242 47.6329 38.3629C47.6806 38.4361 47.8341 38.4438 47.8823 38.3736C47.9174 38.3227 47.9539 38.2685 47.9708 38.2105C48.0188 38.0452 48.0563 37.877 48.0991 37.7101C48.8007 34.9801 49.4627 32.2409 50.0875 29.4926C50.4901 27.7216 50.876 25.947 51.2273 24.1653C51.2575 24.0117 51.2876 23.8581 51.3202 23.7049C51.3512 23.5594 51.4259 23.4536 51.5693 23.3857C52.0566 23.1549 52.5664 22.9901 53.0914 22.8741C53.7876 22.7202 54.4927 22.6401 55.2073 22.6767C55.8113 22.7075 56.3981 22.8215 56.9534 23.0649C57.1402 23.1468 57.3191 23.2498 57.493 23.3572C57.8543 23.58 58.0976 23.9046 58.2569 24.2902C58.3588 24.5373 58.4296 24.7962 58.4514 25.0625C58.4848 25.469 58.484 25.8753 58.4175 26.2805C58.2654 27.2093 58.018 28.1156 57.7699 29.022C57.1115 31.4264 56.2886 33.7771 55.4018 36.1065C54.727 37.8788 54.0344 39.6444 53.2556 41.375C52.9405 42.0753 52.6 42.7644 52.2811 43.4635C52.1708 43.7054 51.9978 43.8692 51.7682 43.9934C51.4477 44.1668 51.1133 44.3067 50.7654 44.4113C50.2666 44.5614 49.7616 44.6881 49.2394 44.7341C49.0508 44.7509 48.864 44.7939 48.6754 44.803C48.3442 44.8193 48.0121 44.8191 47.6804 44.8257L47.6801 44.8099Z" fill="white"/>
<path d="M111.918 18.8635C112.208 18.7213 112.512 18.7038 112.803 18.6417C113.72 18.4459 114.649 18.4077 115.584 18.4334C116.171 18.4494 116.748 18.5308 117.306 18.7188C117.499 18.7839 117.689 18.8633 117.874 18.9503C118.337 19.1678 118.658 19.5206 118.857 19.9872C119.019 20.3657 119.11 20.7617 119.143 21.1693C119.165 21.4343 119.171 21.7012 119.172 21.9673C119.176 22.7034 119.172 23.4396 119.175 24.1758C119.175 24.316 119.188 24.4566 119.201 24.5965C119.208 24.6721 119.286 24.7469 119.358 24.7502C119.515 24.7578 119.673 24.7642 119.831 24.7644C121.364 24.7654 122.896 24.7647 124.429 24.7657C124.571 24.7657 124.713 24.77 124.855 24.7797C124.937 24.7853 125.002 24.8301 125.048 24.8995C125.066 24.9257 125.085 24.9511 125.099 24.9791C125.54 25.8824 125.782 26.8272 125.713 27.8394C125.693 28.1368 125.665 28.4318 125.591 28.7216C125.313 29.8078 124.487 30.2451 123.716 30.3351C123.481 30.3626 123.243 30.3715 123.007 30.3725C121.948 30.3763 120.89 30.3733 119.831 30.3753C119.674 30.3756 119.516 30.3883 119.359 30.4008C119.284 30.4066 119.205 30.4832 119.197 30.5524C119.187 30.6455 119.176 30.7391 119.175 30.8327C119.172 31.099 119.173 31.3654 119.173 31.6315C119.173 33.3702 119.175 35.1088 119.172 36.8475C119.172 37.1149 119.189 37.3792 119.244 37.641C119.356 38.1617 119.638 38.5557 120.115 38.8081C120.397 38.9569 120.696 39.0556 121.008 39.1103C121.539 39.2034 122.076 39.2247 122.614 39.1769C123.196 39.125 123.773 39.0396 124.339 38.8877C124.4 38.8714 124.462 38.8546 124.524 38.8536C124.568 38.8531 124.614 38.8742 124.655 38.8946C124.681 38.908 124.703 38.935 124.722 38.9599C125.043 39.3908 125.315 39.8454 125.451 40.3717C125.507 40.5864 125.526 40.805 125.537 41.0222C125.583 41.8604 125.405 42.6418 124.886 43.3238C124.547 43.7685 124.13 44.1193 123.618 44.3582C123.142 44.5802 122.642 44.7245 122.126 44.801C121.061 44.9593 119.992 45.0356 118.914 44.9318C118.522 44.8939 118.128 44.8763 117.737 44.8137C116.938 44.6858 116.163 44.4797 115.424 44.1501C115.005 43.9633 114.61 43.7344 114.239 43.4653C113.51 42.9354 112.963 42.2565 112.584 41.445C112.283 40.8011 112.104 40.1214 111.989 39.4232C111.889 38.818 111.869 38.2082 111.869 37.597C111.869 36.5161 111.869 35.4355 111.869 34.3546C111.869 29.4361 111.869 24.5179 111.869 19.5995C111.869 19.4273 111.867 19.2548 111.875 19.0828C111.878 19.0073 111.904 18.9322 111.918 18.8635Z" fill="white"/>
<path d="M129.63 32.6443C129.63 29.7932 129.63 26.9424 129.63 24.0913C129.63 23.9346 129.63 23.7779 129.634 23.6214C129.638 23.4718 129.701 23.3983 129.859 23.3668C130.06 23.3263 130.262 23.2925 130.464 23.2566C131.604 23.0531 132.751 22.9748 133.908 23.0572C134.286 23.0842 134.661 23.134 135.029 23.2317C136 23.4899 136.604 24.1159 136.877 25.0648C136.99 25.4581 137.031 25.8638 137.048 26.2711C137.056 26.443 137.052 26.6157 137.052 26.788C137.052 32.396 137.052 38.0041 137.052 43.612C137.052 43.7529 137.054 43.8941 137.047 44.0348C137.038 44.209 136.989 44.2736 136.792 44.3202C136.654 44.3527 136.512 44.3698 136.372 44.3929C136.107 44.4367 135.843 44.4817 135.578 44.5234C134.621 44.6738 133.657 44.673 132.694 44.6196C132.332 44.5995 131.973 44.54 131.621 44.4438C130.708 44.1948 130.119 43.6127 129.83 42.7283C129.703 42.3388 129.652 41.9341 129.635 41.5263C129.627 41.3231 129.631 41.119 129.631 40.9155C129.631 38.1585 129.63 35.4013 129.63 32.6443Z" fill="white"/>
<path d="M7.75734 34.9147C7.75734 37.7955 7.75734 40.6764 7.75709 43.5575C7.75709 43.7297 7.75529 43.9019 7.74888 44.0739C7.74426 44.198 7.676 44.281 7.55566 44.3069C7.4171 44.3369 7.277 44.3606 7.13716 44.3835C6.82591 44.4341 6.51389 44.4807 6.2029 44.532C5.27736 44.6852 4.34592 44.6646 3.415 44.6196C3.05295 44.602 2.69397 44.5407 2.34269 44.4443C1.35172 44.1718 0.759506 43.5178 0.49778 42.5502C0.399247 42.1856 0.368456 41.8109 0.361014 41.4344C0.358192 41.2935 0.358961 41.1526 0.358961 41.0117C0.358961 35.3751 0.358705 29.7385 0.359732 24.1019C0.359732 23.9144 0.370765 23.727 0.383081 23.54C0.387443 23.4744 0.435426 23.4265 0.496752 23.4021C0.554999 23.379 0.615556 23.3573 0.677139 23.3474C1.25345 23.2561 1.82925 23.1587 2.40761 23.0819C2.68832 23.0445 2.97468 23.0348 3.25848 23.0343C3.73215 23.0333 4.20608 23.0399 4.67898 23.0618C5.05746 23.0791 5.4326 23.1406 5.79825 23.2424C6.24729 23.3675 6.64219 23.5868 6.96729 23.9244C7.30394 24.2739 7.50896 24.6936 7.62417 25.1553C7.69217 25.4278 7.7458 25.7055 7.74529 25.9902C7.74477 26.2563 7.75683 26.5224 7.75709 26.7884C7.75811 29.4971 7.75734 32.2057 7.75734 34.9147Z" fill="white"/>
<path d="M144.733 10.6961C144.291 10.6874 143.849 10.6729 143.406 10.6714C142.555 10.6684 141.747 10.8736 140.975 11.216C139.784 11.7449 138.792 12.5299 138.005 13.5635C137.385 14.378 136.985 15.2917 136.818 16.2978C136.762 16.6361 136.756 16.9836 136.742 17.3276C136.728 17.6572 136.697 17.9818 136.615 18.3028C136.28 19.6063 135.163 20.6793 133.767 20.9604C131.827 21.3508 129.828 20.1619 129.373 18.107C128.962 15.8094 130.406 14.2447 131.948 13.8003C132.457 13.6538 132.973 13.608 133.495 13.6744C133.938 13.7309 134.373 13.7202 134.816 13.669C135.612 13.577 136.356 13.3348 137.061 12.9682C137.511 12.7347 137.925 12.4467 138.31 12.1193C138.987 11.5434 139.564 10.8838 140.002 10.1095C140.537 9.16166 140.826 8.14769 140.818 7.05792C140.814 6.58808 140.808 6.11824 140.756 5.65018C140.727 5.38486 140.739 5.12107 140.774 4.85447C140.823 4.48079 140.888 4.11244 141.004 3.753C141.576 1.982 143.014 0.629963 144.829 0.163936C145.399 0.0176668 145.978 -0.0253245 146.567 0.0135958C147.777 0.0937259 148.84 0.532535 149.749 1.31654C150.671 2.11199 151.276 3.1084 151.504 4.30552C151.827 6.0058 151.453 7.54226 150.325 8.87497C149.537 9.80651 148.527 10.3913 147.332 10.6536C146.962 10.7348 146.583 10.7742 146.202 10.7612C145.712 10.7447 145.223 10.7228 144.734 10.7035C144.734 10.7014 144.734 10.6991 144.734 10.6971L144.733 10.6961Z" fill="white"/>
<path d="M4.07952 13.26C4.52471 13.2473 4.98992 13.304 5.44973 13.4361C6.78454 13.8194 7.82272 15.0438 8.04544 16.3393C8.16168 17.016 8.13294 17.6753 7.9505 18.3339C7.65234 19.4102 6.64777 20.6656 5.00942 20.9502C4.53806 21.0322 4.06695 21.0573 3.59635 21.0169C2.21126 20.8983 1.14742 20.2596 0.462311 19.0439C0.180827 18.5448 0.0399563 18.0027 0.00916494 17.4324C-0.0206 16.8812 0.0160943 16.3347 0.20931 15.814C0.690681 14.5159 1.59979 13.6836 2.96872 13.36C3.32513 13.2758 3.68513 13.2552 4.07952 13.26Z" fill="white"/>
</svg>
