<svg width="35" height="27" viewBox="0 0 35 27" fill="none" xmlns="http://www.w3.org/2000/svg">
<path d="M32.0833 0.375H10.2083C9.20208 0.375 8.41458 0.885417 7.88958 1.65833L0.539575 12.6979C0.218742 13.1938 0.218742 13.8208 0.539575 14.3167L7.88958 25.3417C8.41458 26.1 9.30416 26.625 10.3104 26.625H32.0833C33.6875 26.625 35 25.3125 35 23.7083V3.29167C35 1.6875 33.6875 0.375 32.0833 0.375ZM13.125 15.6875C11.9146 15.6875 10.9375 14.7104 10.9375 13.5C10.9375 12.2896 11.9146 11.3125 13.125 11.3125C14.3354 11.3125 15.3125 12.2896 15.3125 13.5C15.3125 14.7104 14.3354 15.6875 13.125 15.6875ZM20.4167 15.6875C19.2062 15.6875 18.2292 14.7104 18.2292 13.5C18.2292 12.2896 19.2062 11.3125 20.4167 11.3125C21.6271 11.3125 22.6042 12.2896 22.6042 13.5C22.6042 14.7104 21.6271 15.6875 20.4167 15.6875ZM27.7083 15.6875C26.4979 15.6875 25.5208 14.7104 25.5208 13.5C25.5208 12.2896 26.4979 11.3125 27.7083 11.3125C28.9187 11.3125 29.8958 12.2896 29.8958 13.5C29.8958 14.7104 28.9187 15.6875 27.7083 15.6875Z" fill="#1C5196"/>
</svg>
