<svg width="22" height="22" viewBox="0 0 22 22" fill="none" xmlns="http://www.w3.org/2000/svg">
<rect width="22" height="22" rx="2" fill="#F4F4F4"/>
<path d="M10.5 11C10.8781 11 11.2019 10.8628 11.4714 10.5884C11.7409 10.314 11.8755 9.98453 11.875 9.6C11.875 9.215 11.7402 8.8853 11.4707 8.6109C11.2012 8.3365 10.8777 8.19953 10.5 8.2C10.1219 8.2 9.79806 8.3372 9.52856 8.6116C9.25906 8.886 9.12454 9.21547 9.125 9.6C9.125 9.985 9.25975 10.3147 9.52925 10.5891C9.79875 10.8635 10.1223 11.0005 10.5 11ZM10.5 18C8.65521 16.4017 7.27746 14.9172 6.36675 13.5466C5.45604 12.176 5.00046 10.9071 5 9.74C5 7.99 5.55298 6.59583 6.65894 5.5575C7.7649 4.51917 9.04525 4 10.5 4C11.9552 4 13.2358 4.51917 14.3417 5.5575C15.4477 6.59583 16.0005 7.99 16 9.74C16 10.9067 15.5444 12.1755 14.6332 13.5466C13.7221 14.9177 12.3443 16.4021 10.5 18Z" fill="#1C5196"/>
</svg>
