<svg width="20" height="14" viewBox="0 0 20 14" fill="none" xmlns="http://www.w3.org/2000/svg">
<path d="M5.5 7C4.12 7 3.01 5.88 3.01 4.5C3.01 3.12 4.12 2 5.5 2C6.88 2 8 3.12 8 4.5C8 5.88 6.88 7 5.5 7ZM13 6C11.34 6 10.01 4.66 10.01 3C10.01 1.34 11.34 0 13 0C14.66 0 16 1.34 16 3C16 4.66 14.66 6 13 6ZM5.5 9C7.33 9 11 9.92 11 11.75V13C11 13.55 10.55 14 10 14H1C0.450001 14 0 13.55 0 13V11.75C0 9.92 3.67 9 5.5 9ZM13 8C15.33 8 20 9.17 20 11.5V13C20 13.55 19.55 14 19 14H13V11.75C13 10.9 12.67 9.41 10.63 8.28C11.5 8.1 12.34 8 13 8Z" fill="#0F1108"/>
</svg>
