<svg width="18" height="18" viewBox="0 0 18 18" fill="none" xmlns="http://www.w3.org/2000/svg">
<path d="M17 10H11C10.45 10 10 9.55 10 9V1C10 0.45 10.45 0 11 0H17C17.55 0 18 0.45 18 1V9C18 9.55 17.55 10 17 10ZM17 18H11C10.45 18 10 17.55 10 17V13C10 12.45 10.45 12 11 12H17C17.55 12 18 12.45 18 13V17C18 17.55 17.55 18 17 18ZM7 18H1C0.450001 18 0 17.55 0 17V9C0 8.45 0.450001 8 1 8H7C7.55 8 8 8.45 8 9V17C8 17.55 7.55 18 7 18ZM8 1V5C8 5.55 7.55 6 7 6H1C0.450001 6 0 5.55 0 5V1C0 0.45 0.450001 0 1 0H7C7.55 0 8 0.45 8 1Z" fill="#0F1108"/>
</svg>
