<svg width="36" height="34" viewBox="0 0 36 34" fill="none" xmlns="http://www.w3.org/2000/svg">
<g id="Group 1660">
<path id="Vector" d="M6.36147 30.9026C7.5578 30.9026 8.52763 29.9328 8.52763 28.7365C8.52763 27.5401 7.5578 26.5703 6.36147 26.5703C5.16513 26.5703 4.19531 27.5401 4.19531 28.7365C4.19531 29.9328 5.16513 30.9026 6.36147 30.9026Z" fill="#FF8354"/>
<path id="Vector_2" d="M19.468 23.1172V24.5226C19.468 24.9291 19.1384 25.2587 18.7319 25.2587H17.2596C16.853 25.2587 16.5234 24.9291 16.5234 24.5226V23.1172H19.468Z" fill="#D8D8E4"/>
<path id="Vector_3" d="M23.3549 14.0172H12.6473C11.6124 14.0172 10.7734 13.1783 10.7734 12.1434C10.7734 11.1085 11.6124 10.2695 12.6473 10.2695H23.3549C24.3898 10.2695 25.2288 11.1085 25.2288 12.1434C25.2288 13.1783 24.3898 14.0172 23.3549 14.0172Z" fill="#FFF59F"/>
<path id="Vector_4" d="M23.3561 14.0156V17.7633C23.3561 20.7201 20.9591 23.1171 18.0023 23.1171C15.0454 23.1171 12.6484 20.7201 12.6484 17.7633V14.0156" fill="#FF8354"/>
<g id="Group">
<path id="Vector_5" d="M14.315 4.10938C13.5758 4.10938 12.9766 4.7086 12.9766 5.44783V10.2663H15.6535V5.44783C15.6535 4.7086 15.0542 4.10938 14.315 4.10938Z" fill="#D8D8E4"/>
<path id="Vector_6" d="M21.6744 4.10938C20.9352 4.10938 20.3359 4.7086 20.3359 5.44783V10.2663H23.0128V5.44783C23.0128 4.7086 22.4136 4.10938 21.6744 4.10938Z" fill="#D8D8E4"/>
</g>
<path id="Vector_7" d="M6.35842 25.9005C5.91104 25.9005 5.47979 26.0042 5.09103 26.1988C1.27088 20.7865 1.25763 13.3698 5.12336 7.94436C5.33778 7.64334 5.26764 7.22547 4.96662 7.01098C4.66561 6.7965 4.24774 6.86663 4.03325 7.16765C1.90089 10.1604 0.806971 13.6944 0.869745 17.3877C0.929507 20.9024 2.03306 24.2365 4.06624 27.0669C3.25835 28.1751 3.35399 29.7412 4.35348 30.7409C4.90626 31.2936 5.6323 31.57 6.35842 31.57C7.08453 31.57 7.81057 31.2936 8.36336 30.7409C9.46885 29.6353 9.46885 27.8366 8.36336 26.731C7.82777 26.1954 7.11572 25.9005 6.35842 25.9005ZM7.41687 29.7944C6.8331 30.378 5.88353 30.378 5.2999 29.7944C4.7162 29.2107 4.7162 28.261 5.2999 27.6773C5.58265 27.3946 5.95855 27.2389 6.35835 27.2389C6.75815 27.2389 7.13412 27.3946 7.4168 27.6773C8.00057 28.261 8.00057 29.2107 7.41687 29.7944Z" fill="#224669"/>
<path id="Vector_8" d="M27.2339 29.9088C25.3207 31.2913 23.17 32.2071 20.8415 32.6309C20.302 32.7292 19.7518 32.5845 19.332 32.2343C18.9152 31.8865 18.6762 31.3756 18.6762 30.8327V25.9274H18.7346C19.5095 25.9274 20.14 25.297 20.14 24.522V23.3922C22.4069 22.5268 24.0215 20.33 24.0215 17.7629V14.5944C25.1 14.2998 25.8953 13.312 25.8953 12.1414C25.8953 10.8526 24.9314 9.78542 23.6869 9.62099V5.44909C23.6869 4.34205 22.7862 3.44141 21.6792 3.44141C20.5722 3.44141 19.6715 4.34205 19.6715 5.44909V9.5983H16.3254V5.44909C16.3254 4.34205 15.4247 3.44141 14.3177 3.44141C13.2107 3.44141 12.31 4.34205 12.31 5.44909V9.62099C11.0655 9.78542 10.1016 10.8526 10.1016 12.1414C10.1016 13.312 10.8969 14.2998 11.9754 14.5944V17.7629C11.9754 20.33 13.59 22.5268 15.8569 23.3922V24.5221C15.8569 25.297 16.4874 25.9275 17.2623 25.9275H17.3377V30.8328C17.3377 31.7738 17.752 32.6592 18.4744 33.262C19.0509 33.743 19.7694 33.9997 20.5075 33.9997C20.6981 33.9997 20.89 33.9826 21.0812 33.9478C23.6076 33.4879 25.9414 32.494 28.0177 30.9937C28.3173 30.7772 28.3846 30.3589 28.1682 30.0593C27.9519 29.7598 27.5337 29.6923 27.2339 29.9088ZM21.01 5.44909C21.01 5.08008 21.3103 4.77986 21.6793 4.77986C22.0483 4.77986 22.3485 5.08008 22.3485 5.44909V9.5983H21.01V5.44909ZM13.6485 5.44909C13.6485 5.08008 13.9488 4.77986 14.3178 4.77986C14.6868 4.77986 14.987 5.08008 14.987 5.44909V9.5983H13.6485V5.44909ZM11.4401 12.1414C11.4401 11.4772 11.9805 10.9368 12.6447 10.9368H23.3523C24.0165 10.9368 24.5569 11.4772 24.5569 12.1414C24.5569 12.8056 24.0165 13.346 23.3523 13.346H12.6447C11.9805 13.346 11.4401 12.8056 11.4401 12.1414ZM13.3139 17.7629V14.6844H22.6831V17.7629C22.6831 20.346 20.5816 22.4475 17.9985 22.4475C15.4154 22.4475 13.3139 20.346 13.3139 17.7629ZM17.1954 24.5221V23.7323C17.4583 23.7675 17.7263 23.7859 17.9985 23.7859C18.2708 23.7859 18.5388 23.7675 18.8016 23.7323V24.5221C18.8016 24.559 18.7716 24.589 18.7347 24.589H18.0239C18.0183 24.5889 18.0127 24.5881 18.0071 24.5881C18.0015 24.5881 17.9959 24.5889 17.9903 24.589H17.2625C17.2254 24.589 17.1954 24.559 17.1954 24.5221Z" fill="#224669"/>
<path id="Vector_9" d="M29.1639 28.2647C29.1588 28.2699 29.1536 28.2753 29.1488 28.2804C28.8965 28.5507 28.9112 28.9741 29.1813 29.2263C29.3104 29.3467 29.4743 29.4063 29.6378 29.4063C29.8107 29.4063 29.9831 29.3397 30.1134 29.208C30.1186 29.2028 30.1238 29.1974 30.1286 29.1923C30.3809 28.922 30.3662 28.4986 30.096 28.2464C29.8308 27.9988 29.4176 28.0083 29.1639 28.2647Z" fill="#224669"/>
<path id="Vector_10" d="M35.0852 15.843C34.7871 11.7462 33.0212 7.88821 30.113 4.97994C27.2546 2.12134 23.4363 0.371573 19.3614 0.0530872C15.3362 -0.261651 11.3301 0.830663 8.07984 3.12852C7.77802 3.34187 7.70634 3.75954 7.91969 4.06129C8.13298 4.36305 8.55071 4.43486 8.85246 4.22144C15.0678 -0.172509 23.8009 0.560362 29.1666 5.92636C34.7116 11.4717 35.3821 20.0829 30.7608 26.4021C30.5426 26.7004 30.6076 27.1191 30.9059 27.3373C31.0251 27.4244 31.1634 27.4664 31.3005 27.4664C31.5067 27.4664 31.7101 27.3714 31.8412 27.1921C34.2282 23.9281 35.3804 19.8976 35.0852 15.843Z" fill="#224669"/>
<path id="Vector_11" d="M6.27081 6.21283C6.44301 6.21283 6.61527 6.14671 6.74617 6.01474L6.75707 6.00363C7.01727 5.74116 7.01533 5.3174 6.75286 5.0572C6.49032 4.79708 6.06657 4.79882 5.80637 5.06142L5.79546 5.07253C5.53527 5.335 5.53721 5.75876 5.79968 6.01895C5.93018 6.14825 6.1005 6.21283 6.27081 6.21283Z" fill="#224669"/>
<path id="Vector_12" d="M18.1263 20.6267L19.5116 18.1807C19.629 17.9735 19.6274 17.7196 19.5075 17.5139C19.3876 17.3081 19.1674 17.1817 18.9293 17.1817H18.451L19.3319 16.069C19.5613 15.7792 19.5123 15.3583 19.2225 15.1289C18.9328 14.8995 18.5118 14.9485 18.2824 15.2382L16.5429 17.4355C16.3837 17.6367 16.3535 17.9113 16.4652 18.1423C16.577 18.3734 16.811 18.5201 17.0677 18.5201H17.7811L16.9615 19.9671C16.7794 20.2888 16.8925 20.6971 17.214 20.8792C17.3182 20.9382 17.4314 20.9663 17.5432 20.9663C17.7766 20.9662 18.0031 20.8441 18.1263 20.6267Z" fill="#224669"/>
</g>
</svg>
