<svg width="40" height="34" viewBox="0 0 40 34" fill="none" xmlns="http://www.w3.org/2000/svg">
<g id="Group">
<path id="Vector" d="M6.0234 33.4199C4.11003 33.4199 2.3452 32.3804 1.41762 30.7068C0.490051 29.0333 0.543791 26.9857 1.55789 25.3632L15.5286 3.01013C16.4972 1.46041 18.1664 0.535156 19.9941 0.535156C21.8217 0.535156 23.4909 1.46041 24.4595 3.01013L38.4301 25.3632C39.4442 26.9857 39.498 29.0333 38.5705 30.7068C37.6429 32.3804 35.8781 33.4199 33.9647 33.4199H6.0234Z" fill="#FFF59F"/>
<path id="Vector_2" d="M6.03027 30.996C4.99723 30.996 4.04445 30.4347 3.5437 29.5313C3.04296 28.6277 3.07195 27.5223 3.6194 26.6462L17.5901 4.29326C18.1131 3.45654 19.0143 2.95703 20.0009 2.95703C20.9876 2.95703 21.8889 3.45654 22.4117 4.29318L36.3825 26.6463C36.93 27.5223 36.959 28.6277 36.4582 29.5312C35.9575 30.4348 35.0047 30.996 33.9717 30.996H6.03027Z" fill="#FED0AB"/>
<path id="Vector_3" d="M24.6347 16.5219C25.9274 17.7364 26.7257 19.4793 26.6905 21.4094C26.6254 24.9852 23.6788 27.8525 20.1307 27.7994C16.6064 27.7467 13.7656 24.8515 13.7656 21.287C13.7656 20.1739 14.0425 19.1261 14.5311 18.2097C14.6085 18.0648 14.8056 18.0406 14.916 18.1619C15.2388 18.5172 15.8899 19.1229 16.6037 19.16C16.6037 19.16 15.7745 13.3323 21.3191 10.9846C21.5257 10.8971 21.728 11.1174 21.6236 11.3173C21.248 12.0369 20.7574 13.3118 21.1876 14.4942C21.7093 15.9282 23.2876 15.7901 23.3232 18.6462C23.3232 18.6462 23.9688 17.925 24.2385 16.6481C24.2773 16.4654 24.4991 16.3945 24.6347 16.5219Z" fill="#F27A55"/>
<path id="Vector_4" d="M23.4152 24.5867C23.4152 25.4739 23.0582 26.2768 22.4813 26.8582C21.9045 27.4395 21.1073 27.7986 20.227 27.7986C18.4669 27.7986 17.0401 26.3612 17.0394 24.5874C17.0394 24.5868 17.0394 24.5868 17.0394 24.5862C17.0318 23.9667 17.1544 23.2429 17.4895 22.4105C17.5357 22.2957 17.66 22.2341 17.778 22.2689L18.8775 22.5928C18.9145 20.6301 20.3219 19.6501 20.9598 19.306C21.1058 19.2273 21.2844 19.3186 21.3083 19.4837C21.4126 20.2038 21.6248 20.8982 22.011 21.5341C22.334 22.0653 22.6394 22.5204 22.9927 23.03C23.2987 23.4722 23.4177 24.0561 23.4152 24.5867Z" fill="#F1F6F7"/>
<path id="Vector_5" d="M18.5876 24.5874C18.5876 24.5868 18.5876 24.5868 18.5876 24.5862C18.5801 23.9667 18.7026 23.2429 19.0377 22.4105C19.084 22.2957 19.2082 22.2341 19.3262 22.2689L20.4258 22.5928C20.4469 21.4705 20.9162 20.6696 21.4334 20.1251C21.3807 19.9142 21.3397 19.7002 21.3083 19.4837C21.2845 19.3186 21.1059 19.2273 20.9598 19.306C20.322 19.6501 18.9145 20.6301 18.8775 22.5928L17.778 22.2689C17.66 22.2341 17.5357 22.2957 17.4895 22.4105C17.1544 23.2429 17.0318 23.9668 17.0394 24.5862V24.5874C17.04 26.3613 18.4669 27.7986 20.227 27.7986C20.4941 27.7986 20.7534 27.7655 21.0013 27.7033C19.6153 27.3549 18.5882 26.0923 18.5876 24.5874Z" fill="#D2E4E7"/>
<g id="Group_2">
<path id="Vector_6" d="M19.0241 32.8403H6.02712C2.44302 32.8403 0.124633 28.7595 2.05447 25.6718L10.0926 12.8102C10.2626 12.5382 10.1799 12.1801 9.90807 12.0102C9.63604 11.8402 9.27788 11.923 9.10808 12.1948L1.06984 25.0564C-1.31846 28.8776 1.52063 34.0015 6.02712 34.0015H19.0241C19.3448 34.0015 19.6047 33.7416 19.6047 33.4209C19.6047 33.1002 19.3448 32.8403 19.0241 32.8403Z" fill="#224669"/>
<path id="Vector_7" d="M38.9251 25.055L24.9549 2.70131C22.7023 -0.9005 17.2914 -0.900423 15.0389 2.70146L10.4477 10.0477C10.2778 10.3196 10.3604 10.6778 10.6323 10.8476C10.9043 11.0175 11.2625 10.9349 11.4323 10.663L16.0234 3.31696C17.8088 0.46194 22.1735 0.443847 23.9703 3.3168L37.9403 25.6703C39.8702 28.7581 37.5518 32.8388 33.9677 32.8388H21.5537C21.233 32.8388 20.9731 33.0987 20.9731 33.4194C20.9731 33.74 21.233 33.9999 21.5537 33.9999H33.9678C38.4743 33.9999 41.3132 28.8761 38.9251 25.055Z" fill="#224669"/>
<path id="Vector_8" d="M28.3536 13.8043C28.6256 13.6344 28.7083 13.2762 28.5383 13.0044L22.9006 3.98403C21.5978 1.89738 18.4059 1.88416 17.0949 3.98388L3.12407 26.3372C1.74207 28.5483 3.39872 31.5752 6.02695 31.5752H33.9686C36.5761 31.5752 38.2645 28.5659 36.8715 26.3373L29.8799 15.1509C29.71 14.8789 29.3516 14.7963 29.0799 14.9663C28.808 15.1362 28.7253 15.4945 28.8953 15.7663L35.887 26.9527C36.8123 28.433 35.7144 30.4141 33.9687 30.4141H6.02695C4.28114 30.4141 3.18346 28.433 4.10871 26.9527L18.0797 4.59906C18.951 3.20361 21.0447 3.20376 21.9159 4.59922L27.5537 13.6197C27.7235 13.8916 28.0819 13.9742 28.3536 13.8043Z" fill="#224669"/>
<path id="Vector_9" d="M22.0167 10.6482C21.7793 10.3907 21.4177 10.3126 21.0951 10.4492C18.0177 11.7523 16.8026 14.0764 16.3252 15.7967C16.0493 16.791 15.9827 17.6948 15.9814 18.3271C15.7742 18.1908 15.5589 18.0028 15.3481 17.7708C14.8486 17.3669 14.4064 17.4219 14.0213 17.9359C13.4758 18.9588 13.1875 20.1174 13.1875 21.2862C13.1875 25.113 16.3956 28.3799 20.2314 28.3799C24.0543 28.3793 27.2031 25.2788 27.2734 21.4191C27.3099 19.4085 26.4939 17.469 25.0345 16.098C24.3317 15.3952 23.7589 16.2533 23.6029 16.8135C23.31 16.0425 22.8543 15.6118 22.4589 15.2382C21.3977 14.2352 21.4996 12.813 22.1407 11.5852C22.3033 11.2739 22.2546 10.9062 22.0167 10.6482ZM22.8385 24.5848C22.7458 25.9808 21.7054 27.2187 20.2307 27.2187C18.7938 27.2186 17.6244 26.0384 17.6239 24.5881C17.6239 24.5858 17.6239 24.5821 17.6239 24.5797C17.6174 24.0604 17.7181 23.5021 17.9233 22.9164L18.7174 23.1503C19.1457 23.2139 19.3939 23.032 19.4618 22.6043C19.4863 21.304 20.2089 20.5133 20.8285 20.0729C21.1 21.3216 21.7983 22.3209 22.5191 23.361C22.7243 23.6577 22.8407 24.1037 22.8385 24.5848ZM21.6615 16.082C22.2325 16.6217 22.7257 17.0879 22.7452 18.6527C22.9097 19.2412 23.2474 19.3678 23.7582 19.0326C23.7841 19.0037 24.3077 18.4099 24.648 17.3683C25.6113 18.4742 26.1395 19.9126 26.1124 21.3979C26.0775 23.3179 25.1329 25.0131 23.7011 26.0718C24.1227 25.0738 24.1152 23.6272 23.4737 22.6999C22.7373 21.6374 22.0736 20.6916 21.8867 19.401C21.6971 18.7822 21.2975 18.5804 20.688 18.7957C20.0658 19.1314 18.7099 20.0533 18.3756 21.8392L17.946 21.7126C17.5396 21.5929 17.1134 21.8 16.9549 22.1943C16.619 23.0284 16.4534 23.8358 16.4627 24.5883C16.4628 25.1125 16.5693 25.6122 16.7614 26.0666C15.301 24.9824 14.3486 23.2373 14.3486 21.2861C14.3486 20.4654 14.5181 19.6511 14.8416 18.9054C15.2957 19.318 15.8961 19.7036 16.576 19.7391C16.9847 19.7087 17.1864 19.4886 17.1811 19.0786C17.1792 19.0649 16.9967 17.6857 17.4554 16.0665C17.9761 14.2291 19.0776 12.8355 20.7354 11.9136C20.1854 13.4894 20.4619 14.9485 21.6615 16.082Z" fill="#224669"/>
</g>
</g>
</svg>
