<svg width="19" height="12" viewBox="0 0 19 12" fill="none" xmlns="http://www.w3.org/2000/svg">
<path d="M1.99953 2.00047V5.00047H15.1695L12.2895 2.12047C11.8995 1.73047 11.8995 1.10047 12.2895 0.710469C12.6795 0.320469 13.3095 0.320469 13.6995 0.710469L18.2895 5.30047C18.6795 5.69047 18.6795 6.32047 18.2895 6.71047L13.6995 11.3005C13.3095 11.6905 12.6795 11.6905 12.2895 11.3005C11.8995 10.9105 11.8995 10.2805 12.2895 9.89047L15.1695 7.00047H0.999531C0.449532 7.00047 -0.000469208 6.55047 -0.000469208 6.00047V2.00047C-0.000469208 1.45047 0.449532 1.00047 0.999531 1.00047C1.54953 1.00047 1.99953 1.45047 1.99953 2.00047Z" fill="#0F1108"/>
</svg>
