<svg width="34" height="34" viewBox="0 0 34 34" fill="none" xmlns="http://www.w3.org/2000/svg">
<g id="Group 1661">
<g id="g1407">
<g id="g1409">
<g id="Clip path group">
<mask id="mask0_2325_844" style="mask-type:luminance" maskUnits="userSpaceOnUse" x="0" y="0" width="34" height="34">
<g id="clipPath1415">
<path id="path1413" d="M0 0H34V34H0V0Z" fill="white"/>
</g>
</mask>
<g mask="url(#mask0_2325_844)">
<g id="g1411">
<g id="g1417">
<path id="path1419" d="M29.5261 6.42056C28.6962 7.25044 27.3507 7.25044 26.5208 6.42056C25.691 5.59068 25.691 4.24522 26.5208 3.41534C27.3507 2.58547 28.6962 2.58547 29.5261 3.41534C30.3559 4.24522 30.3559 5.59068 29.5261 6.42056Z" fill="#FF6B6B"/>
</g>
<g id="g1421">
<path id="path1423" d="M7.47919 30.5846C6.64931 31.4145 5.30385 31.4145 4.47397 30.5846C3.64409 29.7547 3.64409 28.4093 4.47397 27.5794C5.30385 26.7495 6.64931 26.7495 7.47919 27.5794C8.30907 28.4093 8.30907 29.7547 7.47919 30.5846Z" fill="#3BBB7F"/>
</g>
<g id="g1425">
<path id="path1427 (Stroke)" fill-rule="evenodd" clip-rule="evenodd" d="M26.0513 6.89012C27.1405 7.97933 28.9064 7.97933 29.9956 6.89012C31.0848 5.80091 31.0848 4.03499 29.9956 2.94578C28.9064 1.85657 27.1405 1.85657 26.0513 2.94578C24.9621 4.03499 24.9621 5.80091 26.0513 6.89012ZM29.0565 5.951C28.486 6.52154 27.561 6.52154 26.9904 5.951C26.4199 5.38045 26.4199 4.45545 26.9904 3.88491C27.561 3.31436 28.486 3.31436 29.0565 3.88491C29.627 4.45545 29.627 5.38045 29.0565 5.951Z" fill="#224669"/>
</g>
<g id="g1429">
<path id="path1431 (Stroke)" fill-rule="evenodd" clip-rule="evenodd" d="M4.00441 31.0542C5.09362 32.1434 6.85954 32.1434 7.94875 31.0542C9.03796 29.965 9.03796 28.1991 7.94875 27.1098C6.85954 26.0206 5.09362 26.0206 4.00441 27.1098C2.9152 28.1991 2.9152 29.965 4.00441 31.0542ZM7.00962 30.1151C6.43908 30.6856 5.51408 30.6856 4.94353 30.1151C4.37299 29.5445 4.37299 28.6195 4.94353 28.049C5.51408 27.4784 6.43908 27.4784 7.00962 28.049C7.58017 28.6195 7.58017 29.5445 7.00962 30.1151Z" fill="#224669"/>
</g>
<g id="g1433">
<path id="path1435 (Stroke)" fill-rule="evenodd" clip-rule="evenodd" d="M17.0029 32.6719C15.9441 32.6719 14.9105 32.5669 13.9116 32.3672C13.552 32.2952 13.2021 32.5284 13.1302 32.8881C13.0583 33.2477 13.2915 33.5976 13.6511 33.6695C14.7353 33.8863 15.8562 34 17.0029 34C26.3918 34 34.0029 26.3888 34.0029 17C34.0029 12.902 32.5518 9.14127 30.1364 6.20568C29.9034 5.92248 29.4849 5.8818 29.2017 6.11482C28.9185 6.34784 28.8778 6.76633 29.1109 7.04954C31.3379 9.75623 32.6748 13.2211 32.6748 17C32.6748 25.6553 25.6583 32.6719 17.0029 32.6719Z" fill="#224669"/>
</g>
<g id="g1437">
<path id="path1439 (Stroke)" fill-rule="evenodd" clip-rule="evenodd" d="M4.80122 27.8839C5.08443 27.6508 5.12511 27.2324 4.89209 26.9491C2.66502 24.2425 1.32812 20.7776 1.32812 16.9987C1.32812 8.34335 8.34467 1.3268 17 1.3268C18.0693 1.3268 19.113 1.43384 20.1211 1.63752C20.4806 1.71015 20.8309 1.4776 20.9035 1.11811C20.9761 0.758625 20.7436 0.408323 20.3841 0.335695C19.2899 0.114635 18.1582 -0.00132179 17 -0.00132179C7.61116 -0.00132179 0 7.60984 0 16.9987C0 21.0967 1.4511 24.8574 3.8665 27.793C4.09952 28.0762 4.51801 28.1169 4.80122 27.8839Z" fill="#224669"/>
</g>
<g id="g1441">
<path id="path1443" d="M17.0011 21.8231C14.3374 21.8231 12.178 19.6638 12.178 17C12.178 14.3363 14.3374 12.177 17.0011 12.177C19.6648 12.177 21.8242 14.3363 21.8242 17C21.8242 19.6638 19.6648 21.8231 17.0011 21.8231ZM26.6191 14.918C26.3661 13.7404 25.9028 12.6411 25.2697 11.6615L26.542 10.3891L23.605 7.45417L22.3336 8.72552C21.3541 8.09246 20.2548 7.62915 19.0773 7.37621V5.57812H14.925V7.37621C13.7475 7.62915 12.6482 8.09246 11.6686 8.72552L10.3973 7.45417L7.46021 10.3891L8.73255 11.6615C8.0995 12.6411 7.63619 13.7404 7.38318 14.918H5.58038L5.57812 19.0701H7.38311C7.63612 20.2477 8.09944 21.347 8.73249 22.3266L7.4553 23.6038L10.3903 26.541L11.6685 25.2627C12.6481 25.8958 13.7475 26.3591 14.925 26.6121V28.4219H19.0773V26.6121C20.2548 26.3591 21.3541 25.8958 22.3337 25.2627L23.612 26.541L26.547 23.6038L25.2698 22.3266C25.9028 21.347 26.3661 20.2477 26.6191 19.0701H28.4241V14.918H26.6191Z" fill="#1C5196"/>
</g>
<g id="g1445">
<path id="path1447 (Stroke)" fill-rule="evenodd" clip-rule="evenodd" d="M14.2609 28.4219C14.2609 28.7886 14.5583 29.0859 14.925 29.0859H19.0773C19.444 29.0859 19.7413 28.7886 19.7413 28.4219V27.1344C20.6234 26.8966 21.4596 26.547 22.2335 26.1016L23.1424 27.0105C23.267 27.1351 23.436 27.2051 23.6121 27.205C23.7883 27.205 23.9572 27.135 24.0817 27.0104L27.0167 24.0732C27.2759 23.8139 27.2758 23.3935 27.0165 23.1343L26.1087 22.2264C26.5541 21.4525 26.9037 20.6163 27.1414 19.7342H28.4241C28.7909 19.7342 29.0882 19.4369 29.0882 19.0701V14.918C29.0882 14.5512 28.7909 14.2539 28.4241 14.2539H27.1414C26.9036 13.3718 26.554 12.5356 26.1086 11.7617L27.0116 10.8587C27.1362 10.7341 27.2061 10.5652 27.2061 10.389C27.2061 10.2128 27.136 10.0439 27.0114 9.91939L24.0744 6.98443C23.815 6.72526 23.3947 6.72534 23.1354 6.9846L22.2334 7.88661C21.4596 7.4412 20.6234 7.09164 19.7413 6.8539V5.57812C19.7413 5.21137 19.444 4.91406 19.0773 4.91406H14.925C14.5583 4.91406 14.2609 5.21137 14.2609 5.57812V6.8539C13.3788 7.09164 12.5427 7.4412 11.7689 7.88661L10.8669 6.9846C10.6076 6.72534 10.1873 6.72526 9.9279 6.98443L6.99082 9.91939C6.86621 10.0439 6.79618 10.2128 6.79615 10.389C6.79611 10.5652 6.86608 10.7341 6.99064 10.8587L7.89366 11.7617C7.44824 12.5356 7.09867 13.3718 6.86089 14.2539H5.58038C5.21377 14.2539 4.91652 14.551 4.91632 14.9176L4.91406 19.0698C4.91397 19.246 4.98389 19.415 5.10843 19.5396C5.23298 19.6642 5.40194 19.7342 5.57812 19.7342H6.86083C7.0986 20.6163 7.44818 21.4525 7.89359 22.2264L6.98573 23.1343C6.72647 23.3935 6.72639 23.8139 6.98556 24.0732L9.92052 27.0104C10.045 27.135 10.214 27.205 10.3901 27.205C10.5663 27.2051 10.7353 27.1351 10.8598 27.0105L11.7687 26.1016C12.5426 26.547 13.3788 26.8966 14.2609 27.1344V28.4219ZM15.5891 27.7578V26.6121C15.5891 26.2991 15.3705 26.0286 15.0645 25.9629C13.967 25.727 12.9423 25.2952 12.029 24.7049C11.7661 24.535 11.4203 24.5718 11.1989 24.7931L10.3904 25.6017L8.39425 23.604L9.20205 22.7962C9.42336 22.5749 9.4601 22.2291 9.29023 21.9662C8.69998 21.0528 8.26817 20.0281 8.03236 18.9306C7.96661 18.6246 7.69611 18.4061 7.38311 18.4061H6.24255L6.24408 15.582H7.38318C7.69617 15.582 7.96667 15.3635 8.03242 15.0575C8.26823 13.96 8.70004 12.9353 9.29028 12.022C9.46017 11.7591 9.42344 11.4133 9.20213 11.192L8.39949 10.3893L10.3971 8.39312L11.1991 9.19508C11.4204 9.4164 11.7662 9.45313 12.0291 9.28324C12.9424 8.693 13.967 8.2612 15.0645 8.02546C15.3705 7.95972 15.5891 7.68921 15.5891 7.37621V6.24219H18.4132V7.37621C18.4132 7.68921 18.6318 7.95972 18.9378 8.02546C20.0352 8.2612 21.0598 8.693 21.9732 9.28324C22.236 9.45313 22.5819 9.4164 22.8032 9.19508L23.6051 8.39312L25.6028 10.3893L24.8001 11.192C24.5788 11.4133 24.5421 11.7591 24.712 12.022C25.3022 12.9353 25.734 13.96 25.9698 15.0575C26.0356 15.3635 26.3061 15.582 26.6191 15.582H27.7601V18.4061H26.6191C26.3062 18.4061 26.0357 18.6246 25.9699 18.9306C25.7341 20.0281 25.3023 21.0528 24.712 21.9662C24.5422 22.2291 24.5789 22.5749 24.8002 22.7962L25.608 23.604L23.6118 25.6017L22.8033 24.7931C22.582 24.5718 22.2362 24.535 21.9733 24.7049C21.0599 25.2952 20.0352 25.727 18.9378 25.9629C18.6317 26.0286 18.4132 26.2991 18.4132 26.6121V27.7578H15.5891ZM11.514 17C11.514 20.0305 13.9707 22.4871 17.0011 22.4871C20.0316 22.4871 22.4883 20.0305 22.4883 17C22.4883 13.9695 20.0316 11.5129 17.0011 11.5129C13.9707 11.5129 11.514 13.9695 11.514 17ZM17.0011 21.159C14.7042 21.159 12.8421 19.297 12.8421 17C12.8421 14.7031 14.7042 12.841 17.0011 12.841C19.2981 12.841 21.1602 14.7031 21.1602 17C21.1602 19.297 19.2981 21.159 17.0011 21.159Z" fill="#224669"/>
</g>
</g>
</g>
</g>
</g>
</g>
</g>
</svg>
