<svg width="34" height="34" viewBox="0 0 34 34" fill="none" xmlns="http://www.w3.org/2000/svg">
<g id="g723">
<g id="g725">
<g id="Clip path group">
<mask id="mask0_2325_2505" style="mask-type:luminance" maskUnits="userSpaceOnUse" x="0" y="0" width="34" height="34">
<g id="clipPath731">
<path id="path729" d="M0 0H34V34H0V0Z" fill="white"/>
</g>
</mask>
<g mask="url(#mask0_2325_2505)">
<g id="g727">
<g id="g733">
<path id="path735" fill-rule="evenodd" clip-rule="evenodd" d="M0.548858 5.19615C0.224929 6.90498 0.723175 8.74231 2.04174 10.0579C3.69373 11.7063 6.16603 12.0692 8.17801 11.1467L10.3642 13.3281H13.276L13.1623 10.2961L11.0974 8.23384C12.0219 6.22637 11.6581 3.75958 10.0061 2.11125C8.68761 0.795606 6.84616 0.298489 5.13355 0.621688C3.33566 0.960028 4.69586 1.90519 4.8891 2.09803L7.2023 4.40605C8.01126 5.21315 8.04539 6.51179 7.30271 7.36053C6.45211 8.10149 5.15061 8.06749 4.34165 7.26032L2.02846 4.9523C1.83521 4.75953 0.887995 3.40232 0.548858 5.19615Z" fill="#DEECF0"/>
</g>
<g id="g737">
<path id="path739" fill-rule="evenodd" clip-rule="evenodd" d="M14.5692 17.5248L15.7722 21.071L21.1772 24.1199L22.8102 25.7494C21.8857 27.7569 22.2494 30.2236 23.9014 31.8719C25.22 33.1876 27.0614 33.6848 28.774 33.3615C30.5719 33.0231 29.2117 32.078 29.0184 31.8851L26.7052 29.5772C25.8963 28.77 25.8622 27.4714 26.6048 26.6226C27.4555 25.8817 28.7569 25.9157 29.5659 26.7229L31.8791 29.0309C32.0723 29.2236 33.0195 30.5809 33.3587 28.787C33.6826 27.0782 33.1844 25.2409 31.8658 23.9252C30.2138 22.277 27.7415 21.914 25.7296 22.8364L24.0473 21.1579C23.5187 21.2978 22.9334 21.1617 22.5222 20.7515C21.9085 20.1391 21.9085 19.1372 22.5222 18.5247L23.5131 17.5343C22.8121 18.2336 21.6641 18.2336 20.9631 17.5343C20.3966 16.969 20.2867 16.1128 20.6372 15.4342C19.9969 16.2659 16.9146 13.2547 16.782 13.1224C15.4445 12.0506 11.7956 14.5079 14.5692 17.5248Z" fill="#DEECF0"/>
</g>
<g id="g741">
<path id="path743" fill-rule="evenodd" clip-rule="evenodd" d="M22.5228 18.5246C21.9091 19.137 21.9091 20.1389 22.5228 20.7513C22.934 21.1615 23.5193 21.2976 24.0479 21.1577C24.3074 21.0896 24.5519 20.9536 24.7546 20.7513L27.1416 18.3696C27.7555 17.7571 27.7555 16.7552 27.1416 16.1428C26.5278 15.5304 25.5237 15.5304 24.908 16.1428L24.872 16.1788L23.5137 17.5341L22.5228 18.5246Z" fill="#FED1A3"/>
</g>
<g id="g745">
<path id="path747" fill-rule="evenodd" clip-rule="evenodd" d="M18.9271 11.9338L18.4081 12.4518L18.0841 12.9224C17.3604 13.9696 19.0825 16.0433 20.6966 15.3306L22.1477 14.9601L22.358 13.5991L22.8354 13.1228C23.5364 12.4234 23.5364 11.2779 22.8354 10.5784C22.1345 9.87911 20.9864 9.87911 20.2854 10.5784L19.3458 11.516L18.9271 11.9338Z" fill="#FED1A3"/>
</g>
<g id="g749">
<path id="path751" fill-rule="evenodd" clip-rule="evenodd" d="M17.736 8.03261L15.8586 9.90586C14.5609 11.2007 16.5709 13.3272 18.4085 12.4502L19.9166 12.0003L20.2859 10.5769C20.9869 9.87751 20.9869 8.732 20.2859 8.03261C19.585 7.33322 18.437 7.33322 17.736 8.03261Z" fill="#FED1A3"/>
</g>
<g id="g753">
<path id="path755" fill-rule="evenodd" clip-rule="evenodd" d="M9.99946 15.137C10.0847 16.5434 9.42917 17.9649 7.48546 19.9024L5.375 22.0081L6.54202 26.6449L12.3903 29.0078L15.7738 25.6318C17.0412 24.3672 17.2875 24.6394 18.7841 24.853C19.4548 24.9494 20.4115 24.5921 21.1807 24.1196L14.5727 17.5244C15.3817 16.2485 15.4631 14.7779 14.7053 13.8573C14.6958 13.846 14.7034 13.8403 14.711 13.8479C15.0501 14.1862 15.8572 14.9915 15.8837 15.0179C17.0071 16.1011 19.4207 17.0198 20.6407 15.4338C20.6597 15.3998 20.6786 15.3639 20.6995 15.3299C20.8832 14.8365 20.006 14.0444 19.1062 13.1447L18.4109 12.4509L15.861 9.90665L15.3911 9.43782C15.0161 9.06363 14.3984 9.06363 14.0214 9.43975L13.1633 10.2961L10.9543 12.5001C10.7118 12.7421 10.5148 13.0237 10.3651 13.328C10.0847 13.8951 9.96347 14.5378 9.99946 15.137Z" fill="#FFE5C1"/>
</g>
<g id="g761">
<path id="path763" fill-rule="evenodd" clip-rule="evenodd" d="M17.4922 11.5363L18.4111 12.4531L18.9301 11.9352L19.3488 11.5174L20.2884 10.5798C20.9894 9.88041 20.9894 8.73491 20.2884 8.03551C20.0005 7.7501 19.6406 7.58189 19.2654 7.5289C19.8186 8.234 19.7694 9.2623 19.1215 9.9107L18.1818 10.8464L17.4922 11.5363Z" fill="#FFBC85"/>
</g>
<g id="g765">
<path id="path767" fill-rule="evenodd" clip-rule="evenodd" d="M21.6165 12.3397L19.9531 13.9993C20.4684 14.5381 20.8208 15.0031 20.6977 15.332C20.7715 15.211 20.8606 15.0957 20.9648 14.9918L22.8365 13.1242C23.5375 12.4248 23.5375 11.2793 22.8365 10.5799C22.558 10.3039 22.2095 10.1357 21.8476 10.079C22.3061 10.7746 22.2303 11.7272 21.6165 12.3397Z" fill="#FFBC85"/>
</g>
<g id="g769">
<path id="path771" fill-rule="evenodd" clip-rule="evenodd" d="M22.1875 20.2617C22.2633 20.4394 22.375 20.6058 22.5209 20.7513C22.932 21.1615 23.5174 21.2976 24.0459 21.1578C24.3055 21.0897 24.5499 20.9536 24.7526 20.7513L27.1396 18.3696C27.7535 17.7572 27.7535 16.7553 27.1396 16.1428C26.9179 15.9217 26.6471 15.7799 26.3611 15.7194C26.6073 16.294 26.4974 16.9897 26.0276 17.4566L23.6405 19.8383C23.4397 20.0405 23.1934 20.1767 22.9339 20.2447C22.6895 20.3089 22.4337 20.3147 22.1875 20.2617Z" fill="#FFBC85"/>
</g>
<g id="g777">
<path id="path779" fill-rule="evenodd" clip-rule="evenodd" d="M15.8812 15.0177C17.0047 16.1009 19.4183 17.0195 20.6383 15.4335C20.6572 15.3995 20.6762 15.3636 20.6971 15.3296C20.8201 15.0007 20.4678 14.5357 19.9525 13.9969C19.4959 14.3864 18.9333 14.53 18.3516 14.5092C18.3271 14.5073 18.3043 14.5073 18.2796 14.5055C17.2472 14.443 16.1635 13.8703 15.5137 13.2427C15.5062 13.2352 15.4076 13.1369 15.2693 12.9989C15.1026 12.8345 15.0799 12.808 14.8772 12.6076C14.754 12.4545 14.5186 12.5798 14.4799 12.6568C14.3436 12.9279 14.3514 13.0423 14.3969 13.3278C14.4348 13.5754 14.6177 13.7588 14.7143 13.8476C15.0969 14.2276 15.8585 14.995 15.8812 15.0177Z" fill="#FED1A3"/>
</g>
<g id="g781">
<path id="path783" fill-rule="evenodd" clip-rule="evenodd" d="M1.22949 26.1456L8.24478 33.1453C8.42095 33.3211 8.64262 33.4269 8.87185 33.4609H9.22228C9.45344 33.4269 9.67318 33.3211 9.84942 33.1453L12.3899 30.6104C12.8313 30.17 12.8313 29.4498 12.3899 29.0094L5.37463 22.0097C4.93317 21.5692 4.2114 21.5692 3.76999 22.0097L1.22949 24.5446C0.788087 24.985 0.788087 25.7052 1.22949 26.1456Z" fill="#1C5196"/>
</g>
<g id="g793">
<path id="path795 (Stroke)" fill-rule="evenodd" clip-rule="evenodd" d="M18.2899 12.5655C18.4844 12.7594 18.7991 12.7594 18.9935 12.5654L20.8709 10.6922C20.8709 10.6922 20.8709 10.6922 20.8709 10.6922C21.7669 9.79823 21.7669 8.33675 20.8709 7.44277C19.9755 6.54933 18.5128 6.54937 17.6174 7.44279C17.6174 7.44279 17.6174 7.44279 17.6174 7.44279L15.74 9.31604C15.6464 9.40948 15.5937 9.53632 15.5938 9.6686C15.5938 9.80088 15.6464 9.92773 15.74 10.0212L18.2899 12.5655ZM16.7969 9.6686L18.321 8.14791C18.8275 7.64243 19.6608 7.64245 20.1673 8.14789C20.6732 8.65269 20.6733 9.48226 20.1673 9.98706L18.6417 11.5093L16.7969 9.6686Z" fill="#224669"/>
</g>
<g id="g797">
<path id="path799 (Stroke)" fill-rule="evenodd" clip-rule="evenodd" d="M24.4009 20.401C23.9814 20.8195 23.292 20.8194 22.8727 20.401C22.4539 19.9832 22.4539 19.2973 22.8727 18.8794L25.2579 16.4976C25.2579 16.4976 25.2579 16.4976 25.258 16.4975C25.6774 16.0792 26.3685 16.0792 26.7878 16.4976C27.2067 16.9155 27.2067 17.6014 26.7879 18.0192L24.4009 20.401C24.4009 20.401 24.4009 20.401 24.4009 20.401ZM22.1691 21.1061C22.9773 21.9126 24.2962 21.9125 25.1044 21.1061L27.4914 18.7244C27.4914 18.7244 27.4914 18.7244 27.4914 18.7244C28.3003 17.9174 28.3003 16.5996 27.4914 15.7925C26.6832 14.9861 25.3625 14.9861 24.5543 15.7925L22.1691 18.1743C22.169 18.1743 22.169 18.1743 22.169 18.1744C21.3603 18.9814 21.3603 20.2992 22.1691 21.1061Z" fill="#224669"/>
</g>
<g id="g801">
<path id="path803 (Stroke)" fill-rule="evenodd" clip-rule="evenodd" d="M22.9524 13.7132C22.9529 13.7127 22.9534 13.7122 22.9539 13.7117L23.2107 13.4555C23.2131 13.4532 23.2154 13.4508 23.2177 13.4485C24.0872 12.5517 24.0771 11.1121 23.1915 10.2261L23.191 10.2256C22.2957 9.33224 20.8329 9.33227 19.9375 10.2256L18.9978 11.1632C18.8031 11.3575 18.8028 11.6728 18.9971 11.8676C19.1913 12.0623 19.5067 12.0626 19.7014 11.8683L20.641 10.9308C20.641 10.9308 20.641 10.9308 20.641 10.9308C21.1475 10.4254 21.9807 10.4254 22.4872 10.9305C22.9873 11.4311 22.993 12.2462 22.5053 12.7522C22.4821 12.7753 22.3707 12.8865 22.2862 12.9708L22.1841 13.0727L22.184 13.0727L22.1836 13.0731L22.1833 13.0735L22.1827 13.0741C22.1823 13.0745 22.172 13.7668 22.8631 13.8008C22.8746 13.7905 22.886 13.7795 22.8863 13.7792L22.8869 13.7786L22.8876 13.7778L22.8878 13.7777L22.9524 13.7132Z" fill="#224669"/>
</g>
<g id="g805">
<path id="path807 (Stroke)" fill-rule="evenodd" clip-rule="evenodd" d="M23.5503 32.2265C24.991 33.6641 27.001 34.205 28.8668 33.853C29.3403 33.7638 29.7351 33.6163 29.9727 33.3459C30.1032 33.1973 30.1782 33.0199 30.1901 32.8295C30.2014 32.6483 30.1537 32.4879 30.0958 32.3623C29.985 32.1219 29.7954 31.9217 29.6593 31.7916C29.5864 31.7219 29.5165 31.661 29.4628 31.6148C29.4539 31.6071 29.4457 31.6 29.4381 31.5935C29.4217 31.5794 29.4082 31.5678 29.3956 31.5568C29.3787 31.5421 29.3721 31.5358 29.3709 31.5348L29.3708 31.5347L29.3708 31.5346L27.0576 29.2267C27.0576 29.2266 27.0576 29.2266 27.0576 29.2266C26.444 28.6143 26.4099 27.6314 26.9583 26.9783C27.6137 26.4304 28.6006 26.4646 29.2147 27.0774L29.2147 27.0774L31.5279 29.3854L31.528 29.3855C31.5275 29.385 31.5332 29.3909 31.5502 29.4102C31.5612 29.4228 31.5729 29.4363 31.5871 29.4527C31.5936 29.4602 31.6006 29.4684 31.6083 29.4773C31.6546 29.5308 31.7156 29.6005 31.7855 29.6733C31.9159 29.8092 32.1165 29.9982 32.3571 30.1086C32.4828 30.1663 32.643 30.2136 32.8239 30.2024C33.0139 30.1906 33.1912 30.1161 33.3401 29.9859C33.6113 29.7488 33.7593 29.3545 33.8487 28.8816C34.2018 27.0187 33.6591 25.0124 32.2182 23.5747C30.5007 21.861 27.9755 21.4215 25.8449 22.2494L24.3997 20.8074C24.205 20.6131 23.8896 20.6135 23.6954 20.8082C23.5011 21.0029 23.5014 21.3182 23.6962 21.5125L25.3784 23.191C25.5257 23.3379 25.7487 23.3779 25.9378 23.2912C27.7682 22.452 30.0156 22.7842 31.5146 24.2798L31.7738 24.0201L31.5146 24.2798C32.7109 25.4733 33.1647 27.1415 32.87 28.6963L32.87 28.6965C32.8321 28.8967 32.7893 29.0331 32.7501 29.1227C32.7407 29.144 32.7321 29.1616 32.7243 29.1761C32.6656 29.138 32.5903 29.0733 32.504 28.9834C32.4526 28.9299 32.4052 28.876 32.3614 28.8254C32.3565 28.8196 32.3511 28.8134 32.3455 28.8069C32.3114 28.7674 32.2667 28.7155 32.2315 28.6803M32.2314 28.6802L29.9183 26.3723C29.9183 26.3723 29.9183 26.3723 29.9183 26.3723C28.9227 25.3789 27.3246 25.3378 26.2784 26.2491C26.2614 26.2639 26.2455 26.2798 26.2307 26.2967C25.3165 27.3414 25.358 28.9378 26.354 29.9318L26.3541 29.9318L28.6673 32.2398L28.6673 32.2398C28.7024 32.2749 28.7544 32.3195 28.794 32.3534C28.8006 32.3591 28.8069 32.3645 28.8127 32.3694C28.8634 32.4131 28.9174 32.4604 28.9711 32.5117C29.0601 32.5967 29.1244 32.6711 29.1627 32.7292C29.1484 32.7368 29.1311 32.7452 29.1103 32.7542C29.0203 32.7935 28.8834 32.8362 28.6826 32.874L28.6823 32.8741C27.123 33.1684 25.4504 32.7151 24.2542 31.5217C23.8802 31.1468 23.5792 30.7278 23.3507 30.282C23.2252 30.0372 22.925 29.9405 22.6802 30.066C22.4355 30.1915 22.3388 30.4917 22.4643 30.7364C22.7395 31.2733 23.1014 31.7767 23.5496 32.2257L23.5503 32.2265M22.3392 28.763C22.614 28.7515 22.8274 28.5193 22.8159 28.2445C22.7831 27.4647 22.9316 26.678 23.263 25.9602C23.3506 25.7706 23.3105 25.5464 23.1627 25.3989L14.9217 17.1743C14.727 16.98 14.4116 16.9803 14.2173 17.175C14.023 17.3697 14.0233 17.685 14.218 17.8793L22.2209 25.8663C21.9183 26.6415 21.7863 27.4685 21.8206 28.2863C21.8322 28.5612 22.0643 28.7746 22.3392 28.763ZM10.7148 13.6822C10.909 13.4874 10.9087 13.1721 10.714 12.9778L8.52775 10.7965C8.38051 10.6496 8.15748 10.6097 7.96841 10.6963C6.13801 11.5355 3.89054 11.2033 2.39155 9.70771L2.03977 10.0603L2.39154 9.70771C1.19532 8.51419 0.7415 6.84598 1.03616 5.29122L1.0362 5.29101C1.07407 5.09077 1.11689 4.95437 1.15612 4.86476C1.16544 4.84348 1.17411 4.82585 1.18189 4.81134C1.24061 4.8495 1.31594 4.91419 1.40219 5.00403C1.4536 5.05759 1.50095 5.11149 1.54474 5.16209C1.54974 5.16786 1.55513 5.17412 1.56082 5.18072C1.59485 5.22022 1.63953 5.27209 1.67468 5.30717L1.67471 5.3072L3.98791 7.61521C4.98347 8.60858 6.5816 8.64976 7.62788 7.73833C7.64483 7.72357 7.66075 7.70768 7.67555 7.69077C8.58967 6.64611 8.54818 5.04969 7.55213 4.05576L7.55211 4.05574L5.23892 1.74773L5.23889 1.7477C5.20372 1.71262 5.1517 1.66801 5.11211 1.63405C5.10552 1.6284 5.09927 1.62304 5.0935 1.61807C5.04279 1.57438 4.98877 1.52713 4.93509 1.47583C4.8461 1.39078 4.78182 1.31645 4.7435 1.25835C4.75782 1.25074 4.77511 1.24231 4.79584 1.23327C4.88587 1.19405 5.02278 1.15127 5.22362 1.11347L5.22389 1.11342C6.78334 0.81908 8.45605 1.27249 9.65228 2.46613L10.0041 2.11358L9.6523 2.46615C11.151 3.96151 11.4834 6.20272 10.6429 8.02776C10.5557 8.21726 10.5958 8.44108 10.7434 8.5885L12.8084 10.6508C13.003 10.8452 13.3184 10.845 13.5128 10.6504C13.7071 10.4557 13.7069 10.1404 13.5123 9.94601L11.685 8.12115C12.5144 5.99449 12.0732 3.47448 10.3558 1.76101C8.9151 0.32338 6.90506 -0.217578 5.03914 0.134612C4.5657 0.223734 4.17101 0.371242 3.9335 0.641614C3.80294 0.790235 3.72793 0.967576 3.71607 1.15803C3.70479 1.33924 3.75246 1.49963 3.81033 1.62519C3.92113 1.86563 4.11075 2.06585 4.24686 2.19593C4.31978 2.26563 4.38968 2.32649 4.44333 2.37271C4.45244 2.38057 4.46074 2.38769 4.46841 2.39429C4.48464 2.40824 4.49808 2.41979 4.5106 2.43073C4.53 2.44768 4.53589 2.45339 4.53539 2.45289L6.84854 4.76086C6.84854 4.76086 6.84855 4.76087 6.84856 4.76088C7.46219 5.37322 7.49625 6.35616 6.94791 7.00918C6.29252 7.55708 5.30561 7.52287 4.69147 6.91009L2.3783 4.6021C2.37836 4.60216 2.37832 4.60212 2.37817 4.60196C2.37714 4.60086 2.37089 4.59423 2.35609 4.57737C2.3451 4.56485 2.33349 4.5514 2.31946 4.53515C2.31288 4.52753 2.30577 4.5193 2.29794 4.51025C2.25162 4.45672 2.19061 4.38697 2.12075 4.3142C1.99031 4.17832 1.78974 3.98926 1.54907 3.87885C1.42342 3.8212 1.26319 3.77384 1.08229 3.78505C0.892241 3.79683 0.714957 3.87136 0.566086 4.00155C0.294969 4.23865 0.146917 4.63292 0.0574911 5.10574C-0.295572 6.96864 0.246967 8.97508 1.688 10.4128C3.40551 12.1265 5.93068 12.566 8.06125 11.7382L10.0104 13.683C10.2051 13.8772 10.5205 13.8769 10.7148 13.6822Z" fill="#224669"/>
</g>
<g id="g809">
<path id="path811 (Stroke)" fill-rule="evenodd" clip-rule="evenodd" d="M7.89104 33.4969C8.52686 34.1313 9.56334 34.1312 10.1992 33.4969L12.7397 30.962C12.7397 30.962 12.7397 30.962 12.7397 30.962C13.3762 30.327 13.3762 29.2908 12.7397 28.6558C12.7397 28.6558 12.7397 28.6558 12.7397 28.6558L9.8828 25.8053C9.68809 25.611 9.37274 25.6113 9.17846 25.8061C8.98418 26.0008 8.98453 26.3161 9.17925 26.5104L12.0361 29.3609C12.2826 29.6068 12.2826 30.011 12.0361 30.2569L9.4957 32.7917C9.49569 32.7917 9.49568 32.7917 9.49567 32.7917C9.24858 33.0382 8.84155 33.0381 8.59459 32.7917L1.57932 25.7921C1.33293 25.5462 1.33292 25.142 1.5793 24.8961C1.57931 24.8961 1.57929 24.8961 1.5793 24.8961L4.1198 22.3613C4.36677 22.1148 4.77381 22.1148 5.02089 22.3613C5.02089 22.3613 5.02088 22.3613 5.02089 22.3613L7.53297 24.8678C7.72768 25.0621 8.04303 25.0617 8.23731 24.867C8.4316 24.6723 8.43125 24.3569 8.23653 24.1626L5.72445 21.6561C5.08859 21.0217 4.05208 21.0217 3.41625 21.6561C3.41624 21.6561 3.41626 21.6561 3.41625 21.6561L0.875748 24.1909C0.239351 24.826 0.239326 25.8621 0.875723 26.4972L7.89104 33.4969Z" fill="#224669"/>
</g>
<g id="g813">
<path id="path815 (Stroke)" fill-rule="evenodd" clip-rule="evenodd" d="M12.0361 29.3615C12.2304 29.5563 12.5457 29.5566 12.7405 29.3623L16.124 25.9863C16.7506 25.3611 17.0308 25.2191 17.268 25.1822C17.3979 25.162 17.5503 25.1681 17.7893 25.2019C17.899 25.2174 18.0179 25.2372 18.1573 25.2605C18.1692 25.2625 18.1813 25.2645 18.1935 25.2665C18.3465 25.292 18.5189 25.3205 18.7122 25.348C19.1543 25.4115 19.6444 25.3227 20.0979 25.1752C20.5598 25.025 21.0268 24.7996 21.4398 24.5459C21.6741 24.4019 21.7474 24.0952 21.6034 23.8608C21.4594 23.6265 21.1527 23.5532 20.9184 23.6972C20.5621 23.916 20.1662 24.1055 19.7898 24.228C19.4052 24.3531 19.0817 24.3948 18.8534 24.362L18.8529 24.3619C18.672 24.3361 18.5093 24.3093 18.3574 24.284C18.3444 24.2818 18.3315 24.2797 18.3187 24.2775C18.1827 24.2548 18.0514 24.2329 17.9287 24.2156C17.661 24.1777 17.392 24.1548 17.1149 24.1979C16.5379 24.2877 16.0613 24.6418 15.4204 25.2812L15.4204 25.2812L12.0369 28.6572C11.8422 28.8515 11.8418 29.1668 12.0361 29.3615Z" fill="#224669"/>
</g>
<g id="g817">
<path id="path819" fill-rule="evenodd" clip-rule="evenodd" d="M20.1617 15.911C19.8113 16.5877 19.9193 17.444 20.4876 18.0092C21.1886 18.7105 22.3366 18.7105 23.0376 18.0092L24.3372 17.5688L24.9075 16.1435C25.6103 15.4441 25.6103 14.2986 24.9075 13.5992C24.2065 12.8998 23.0584 12.8998 22.3575 13.5992L20.4876 15.4649C20.3815 15.5707 20.2925 15.6842 20.2186 15.807C20.2053 15.8429 20.1864 15.8769 20.1617 15.911Z" fill="#FED1A3"/>
</g>
<g id="g821">
<path id="path823" fill-rule="evenodd" clip-rule="evenodd" d="M23.8018 13.0812C24.2471 13.7769 24.1656 14.7163 23.5575 15.3231L21.6876 17.1907C21.2936 17.582 20.7594 17.7559 20.2422 17.7068C20.3103 17.8145 20.3917 17.9165 20.4865 18.0092C21.1875 18.7105 22.3355 18.7105 23.0365 18.0092L24.9064 16.1435C25.6092 15.4441 25.6092 14.2986 24.9064 13.5992C24.5994 13.2911 24.2072 13.119 23.8018 13.0812Z" fill="#FFBC85"/>
</g>
<g id="g825">
<path id="path827 (Stroke)" fill-rule="evenodd" clip-rule="evenodd" d="M22.6839 17.6551C22.1774 18.1618 21.3448 18.1618 20.8384 17.6551L20.8374 17.6542C20.3305 17.1498 20.3298 16.3225 20.8379 15.8155C20.8379 15.8155 20.8379 15.8155 20.8379 15.8155L22.7078 13.9498C23.2143 13.4444 24.0476 13.4444 24.5542 13.9498L24.5547 13.9503C25.0619 14.455 25.0619 15.2838 24.5547 15.7885L22.6839 17.6551ZM23.3881 18.3596C22.4927 19.2551 21.0298 19.2551 20.1343 18.3598C19.236 17.4654 19.2369 16.0058 20.1343 15.1104L22.0043 13.2447C22.0043 13.2447 22.0043 13.2447 22.0043 13.2447C22.8996 12.3514 24.3622 12.3513 25.2576 13.2445C26.1557 14.1386 26.1557 15.6004 25.2575 16.4944C25.2574 16.4945 25.2573 16.4945 25.2573 16.4946L23.3884 18.3593C23.3883 18.3594 23.3882 18.3595 23.3881 18.3596Z" fill="#224669"/>
</g>
<g id="g829">
<path id="path831 (Stroke)" fill-rule="evenodd" clip-rule="evenodd" d="M5.02049 22.3615C5.21477 22.5563 5.53012 22.5566 5.72483 22.3623L7.83505 20.2568C7.83511 20.2567 7.83516 20.2566 7.83522 20.2566C9.81619 18.2819 10.5927 16.7277 10.4946 15.1087C10.4468 14.31 10.7228 13.4342 11.304 12.8543C11.304 12.8543 11.304 12.8543 11.304 12.8543L14.3712 9.79396L14.3713 9.7939C14.5544 9.61115 14.8573 9.61234 15.0374 9.79202C15.0374 9.79203 15.0374 9.79202 15.0374 9.79202L18.7524 13.4988C18.8444 13.5906 18.9345 13.6798 19.0222 13.7665C19.3499 14.0907 19.6429 14.3807 19.8703 14.6457C20.0129 14.8118 20.1114 14.9478 20.1702 15.0563C20.2198 15.148 20.2237 15.1884 20.2243 15.1909C20.2178 15.2611 20.2261 15.3292 20.2469 15.3923C20.1247 15.3748 19.9958 15.4025 19.8874 15.4798C19.4065 15.8225 18.7535 15.8676 18.0461 15.6775C17.343 15.4885 16.6683 15.0857 16.2304 14.664C16.2217 14.6553 16.1981 14.6318 16.1631 14.5969C16.0482 14.4824 15.8104 14.2454 15.5731 14.0088C15.4121 13.8483 15.2512 13.6878 15.1285 13.5653C15.0672 13.504 15.0156 13.4524 14.9783 13.4151C14.9514 13.3882 14.9354 13.3721 14.928 13.3646C14.9239 13.3605 14.9225 13.3591 14.9232 13.3599C14.7343 13.16 14.419 13.1511 14.2191 13.3401C14.0193 13.529 14.0104 13.8443 14.1994 14.0441C14.2339 14.0807 15.2407 15.084 15.4797 15.3221C15.5093 15.3516 15.5271 15.3694 15.5299 15.3721C15.5318 15.3741 15.5338 15.376 15.5358 15.3779C16.0925 15.9154 16.9169 16.4054 17.7875 16.6394C18.6554 16.8727 19.6525 16.8705 20.4656 16.2909C20.6475 16.1612 20.716 15.9316 20.6498 15.73C20.6562 15.7309 20.6627 15.7317 20.6692 15.7324C20.9428 15.7605 21.1874 15.5616 21.2156 15.288C21.2432 15.02 21.1502 14.7742 21.0461 14.5819C20.9386 14.3835 20.7884 14.186 20.6262 13.997C20.3696 13.698 20.0374 13.3694 19.7057 13.0414C19.622 12.9586 19.5384 12.8759 19.456 12.7937L15.7409 9.0869C15.1708 8.51807 14.2384 8.51925 13.6676 9.08887L10.6005 12.1492C9.78744 12.9604 9.43813 14.1299 9.50029 15.1684L9.50031 15.1688C9.57268 16.3623 9.03806 17.6511 7.13183 19.5513L5.02126 21.6572C4.82655 21.8515 4.8262 22.1668 5.02049 22.3615Z" fill="#224669"/>
</g>
<g id="g833">
<path id="path835 (Stroke)" fill-rule="evenodd" clip-rule="evenodd" d="M13.5205 18.7404C13.7148 18.9352 14.0301 18.9355 14.2248 18.7412C15.0359 17.932 15.5395 16.9411 15.6804 15.9766C15.8212 15.012 15.5997 14.0396 14.9088 13.3502C14.714 13.1559 14.3987 13.1562 14.2044 13.3509C14.0101 13.5456 14.0105 13.861 14.2052 14.0553C14.6224 14.4716 14.8015 15.1013 14.6947 15.8327C14.5879 16.5642 14.1954 17.3634 13.5213 18.0361C13.3266 18.2304 13.3262 18.5457 13.5205 18.7404Z" fill="#224669"/>
</g>
</g>
</g>
</g>
</g>
</g>
</svg>
