<?xml version="1.0" encoding="UTF-8"?>
<svg id="Layer_2" data-name="Layer 2" xmlns="http://www.w3.org/2000/svg" viewBox="0 0 256.2 95.26">
  <defs>
    <style>
      .cls-1 {
        fill: #1a5296;
      }

      .cls-2 {
        fill: #282828;
      }
    </style>
  </defs>
  <g id="Layer_1-2" data-name="Layer 1">
    <g>
      <path class="cls-1" d="m157.74,81.13c0-4.02.02-8.04-.02-12.06,0-.72.24-1.13.88-1.44,1.97-.96,4.05-1.19,6.16-.87,2.08.31,3.18,1.58,3.42,3.65.06.51.1,1.03.1,1.55,0,4.57,0,9.14,0,13.72,0,1.39-.03,2.79.05,4.18.15,2.7,1.56,4.41,4.22,4.59,2.37.16,4.78-.14,7.17-.22.85-.03,1.03-.46,1.03-1.25-.03-7.59,0-15.18-.03-22.76,0-.9-.1-1.82-.29-2.7-1.09-5.18-4.53-8.15-9.4-9.63-4.01-1.22-8.12-1.26-12.24-.73-3.54.46-6.88,1.51-9.94,3.42-2.49,1.55-3.73,3.68-3.67,6.69.1,5.02.01,10.05.03,15.08.01,2.62.03,5.25.15,7.87.1,2.19,1.45,3.71,3.6,4.12,2.54.48,5.1.29,7.65-.08.88-.13,1.16-.48,1.15-1.37-.05-3.92-.02-7.85-.02-11.77Z"/>
      <path class="cls-1" d="m33.85,81.08c0-3.99.02-7.98-.01-11.97,0-.76.23-1.31.95-1.49,1.4-.36,2.8-.82,4.23-.93,3.67-.28,5.38,1.4,5.38,5.04,0,5.93-.02,11.87.02,17.8.02,2.84,1.57,4.74,4.33,4.93,2.31.15,4.65-.13,6.98-.21.91-.03,1.15-.49,1.14-1.38-.04-7.39,0-14.79-.04-22.18,0-1.19-.09-2.41-.37-3.56-1.2-5.02-4.64-7.87-9.41-9.27-4.44-1.3-8.96-1.27-13.49-.48-3.35.59-6.52,1.69-9.31,3.71-1.91,1.38-2.99,3.15-2.87,5.61.1,1.97.02,3.96.02,5.93,0,5.64-.02,11.29.02,16.93.02,2.81,1.53,4.68,4.26,4.88,2.34.17,4.71-.13,7.07-.2.96-.03,1.12-.55,1.11-1.4-.04-3.92-.02-7.85-.02-11.77Z"/>
      <path class="cls-1" d="m80.79,84.12c-.1,0-.21,0-.31,0-.17-.6-.36-1.19-.52-1.8-1.71-6.61-3.41-13.21-5.11-19.82-.62-2.39-1.73-4.37-4.36-4.97-2.75-.62-5.33-.2-7.75,1.3-.92.57-1.27,1.14-.9,2.27,1.75,5.48,3.3,11.03,5.15,16.47,1.54,4.53,3.41,8.95,5.14,13.41.64,1.64,1.76,2.78,3.48,3.27,3.73,1.06,7.42.96,11.07-.37.89-.33,1.52-.9,1.89-1.82,1.99-4.92,4.18-9.77,5.96-14.76,1.58-4.4,2.87-8.93,4-13.47.99-3.95-.93-6.4-4.96-6.51-1.78-.05-3.57.41-5.35.69-1.13.18-1.72.86-1.75,2.05-.02.6-.22,1.2-.36,1.8-1.65,7.12-3.3,14.23-4.96,21.35-.07.31-.24.59-.37.89Z"/>
      <path class="cls-1" d="m201.36,60.79c-.03-.56-.06-.98-.07-1.4-.03-1.59,0-3.18-.1-4.76-.14-2.39-1.12-3.59-3.45-4.21-2.53-.67-5.07-.4-7.62.03-.91.15-1.18.51-1.18,1.44.04,10.12.01,20.24.03,30.35,0,1.26.07,2.53.25,3.77.53,3.53,2.28,6.27,5.65,7.71,4.24,1.81,8.67,1.96,13.05.72,4.02-1.14,5.41-5.8,2.91-9.2-.17-.22-.61-.37-.92-.35-1.55.1-3.09.41-4.63.39-2.83-.04-3.97-1.27-3.99-4.11-.02-3.24.02-6.49-.02-9.73-.01-.87.25-1.18,1.15-1.17,2.17.04,4.35.05,6.52-.06,1.65-.08,2.78-1.1,3.15-2.7.46-1.95.24-3.84-.51-5.71-.31-.78-.7-1.08-1.56-1.06-2.85.06-5.71.02-8.68.02Z"/>
      <path class="cls-1" d="m13.12,78.06h0c0-4.96.02-9.92,0-14.88-.02-3.09-1.49-4.72-4.53-5.17-2.31-.35-4.58-.06-6.87.28-.87.13-1.14.46-1.14,1.36.04,9.37.02,18.73.03,28.1,0,.84.05,1.68.13,2.52.22,2.25,1.43,3.67,3.64,4.08,2.48.46,4.95.26,7.44-.12,1.1-.16,1.33-.57,1.32-1.6-.05-4.86-.02-9.72-.02-14.59Z"/>
      <path class="cls-1" d="m231.41,77.89h-.01c0-5.02.02-10.05,0-15.07-.02-2.74-1.57-4.39-4.26-4.79-2.38-.35-4.71-.09-7.06.26-.9.13-1.11.51-1.11,1.39.03,8.79.02,17.57.02,26.36,0,1.33,0,2.66.05,3.99.11,2.33,1.42,3.93,3.7,4.35,2.54.47,5.09.28,7.64-.17.82-.14,1.06-.41,1.06-1.23-.03-5.02-.02-10.05-.02-15.07Z"/>
      <path class="cls-2" d="m75.48.37c1.56,6,3.06,11.83,4.6,17.65.05.19.39.42.6.44.9.05,1.81.02,2.76.02,1.3-4.73,2.58-9.4,3.85-14,1.3,4.64,2.6,9.3,3.91,14,.87,0,1.65-.03,2.42.01.61.03.89-.13,1.06-.78,1.38-5.43,2.81-10.84,4.23-16.26.08-.32.14-.66.23-1.07-.87,0-1.62-.06-2.35.03-.28.03-.67.36-.74.62-.5,1.84-.94,3.7-1.39,5.56-.64,2.66-1.28,5.31-1.94,8.04-.09-.12-.16-.19-.19-.26-1.06-3.97-2.09-7.95-3.17-11.91-.59-2.19-.63-2.16-2.9-2.09-.53.02-.73.21-.85.69-1.14,4.42-2.31,8.83-3.47,13.24-.03.11-.13.19-.18.26-1.09-4.48-2.17-8.95-3.29-13.4-.07-.29-.39-.71-.64-.74-.8-.09-1.61-.04-2.54-.04Z"/>
      <path class="cls-1" d="m6.85,41.26C2.8,41.12.02,44.08,0,47.86c-.02,3.89,2.88,6.59,6.99,6.58,3.98,0,6.73-2.76,6.72-6.72-.01-3.82-2.83-6.48-6.86-6.47Z"/>
      <path class="cls-2" d="m150.1,15.95h-7.21v-5.73h6.74v-2.49h-6.76V2.87h7.22V.42h-10.17v18h10.17v-2.46Z"/>
      <path class="cls-2" d="m104.37.42v17.99h10.15v-2.48h-7.15v-5.7h6.72v-2.46h-6.74V2.86h7.18V.42h-10.15Z"/>
      <path class="cls-2" d="m204.02.36c.18.39.27.63.39.85,1.29,2.4,2.48,4.85,3.9,7.17,1.31,2.12,1.95,4.31,1.7,6.8-.11,1.08-.02,2.17-.02,3.24h2.96c0-2.08-.02-4.12.02-6.15,0-.49.14-1.03.36-1.47,1.3-2.46,2.65-4.9,3.98-7.35.54-.98,1.07-1.97,1.67-3.09-.91,0-1.65.05-2.38-.01-.66-.06-.98.21-1.26.77-1.1,2.2-2.25,4.38-3.39,6.56-.14.26-.3.51-.51.85-1.35-2.6-2.65-5.06-3.91-7.54-.24-.48-.51-.67-1.04-.64-.77.04-1.55.01-2.48.01Z"/>
      <path class="cls-1" d="m256.2,28.22c-.15.69-.27,1.39-.46,2.07-1.09,3.97-4.67,6.67-8.78,6.65-1.94,0-3.9-.18-5.82,0-4.81.42-10.26,5.21-10.18,11.12.04,3.33-2.42,6.06-5.52,6.37-3.26.33-6.12-1.68-6.89-4.87-1.02-4.23,2.56-8.14,7-7.63,5.53.64,11.53-4.11,12.17-9.71.16-1.4.03-2.84.02-4.26-.03-4.67,3.48-8.75,7.94-9.22,4.89-.52,9.16,2.49,10.21,7.19.11.5.2,1.01.3,1.51v.78Z"/>
      <path class="cls-1" d="m157.74,81.13c0,3.92-.03,7.85.02,11.77.01.9-.26,1.25-1.15,1.37-2.55.37-5.1.56-7.65.08-2.15-.41-3.5-1.93-3.6-4.12-.12-2.62-.14-5.25-.15-7.87-.02-5.03.07-10.05-.03-15.08-.06-3.01,1.18-5.14,3.67-6.69,3.05-1.91,6.4-2.96,9.94-3.42,4.12-.53,8.23-.49,12.24.73,4.87,1.48,8.31,4.44,9.4,9.63.19.88.28,1.8.29,2.7.02,7.59,0,15.18.03,22.76,0,.79-.18,1.22-1.03,1.25-2.39.08-4.79.39-7.17.22-2.66-.18-4.07-1.89-4.22-4.59-.08-1.39-.05-2.79-.05-4.18,0-4.57,0-9.14,0-13.72,0-.52-.04-1.04-.1-1.55-.24-2.07-1.34-3.34-3.42-3.65-2.12-.32-4.2-.08-6.16.87-.63.31-.88.72-.88,1.44.03,4.02.02,8.04.02,12.06Z"/>
      <path class="cls-1" d="m115.16,80.95c.5,1.65,1.47,2.82,2.85,3.45,1.43.65,2.96,1.25,4.5,1.42,3.98.46,7.82-.25,11.41-2.09.6-.31.98-.24,1.46.19,2.87,2.59,2.7,7.25-1.01,9.15-2.29,1.18-4.74,1.71-7.27,1.98-4.51.47-8.96.24-13.2-1.51-6.68-2.77-10.19-7.92-11.04-15-.4-3.39-.27-6.75.85-9.98,1.92-5.52,5.7-9.22,11.37-10.78,6.17-1.7,12.11-1.23,17.51,2.47,3.83,2.63,5.91,6.36,6.26,11.02.05.61.09,1.23.06,1.84-.17,3.33-2.47,4.53-4.77,4.89-6.05.95-12.11,1.83-18.16,2.74-.25.04-.49.13-.83.22Zm11.95-10.35c-.51-3.25-3.5-5.3-7.46-4.5-3.24.65-5.9,3.92-5.2,6.58,4.19-.69,8.4-1.38,12.66-2.08Z"/>
      <path class="cls-1" d="m33.85,81.08c0,3.92-.02,7.85.02,11.77,0,.85-.15,1.37-1.11,1.4-2.36.07-4.73.37-7.07.2-2.73-.2-4.24-2.08-4.26-4.88-.04-5.64-.02-11.29-.02-16.93,0-1.98.08-3.96-.02-5.93-.12-2.46.97-4.23,2.87-5.61,2.79-2.02,5.95-3.12,9.31-3.71,4.52-.79,9.05-.82,13.49.48,4.77,1.39,8.21,4.25,9.41,9.27.27,1.15.36,2.37.37,3.56.03,7.39,0,14.79.04,22.18,0,.89-.23,1.35-1.14,1.38-2.33.08-4.67.36-6.98.21-2.76-.18-4.31-2.09-4.33-4.93-.03-5.93-.01-11.87-.02-17.8,0-3.65-1.72-5.32-5.38-5.04-1.43.11-2.83.56-4.23.93-.71.19-.95.73-.95,1.49.03,3.99.01,7.98.01,11.97Z"/>
      <path class="cls-1" d="m80.79,84.12c.12-.3.29-.58.37-.89,1.66-7.11,3.31-14.23,4.96-21.35.14-.6.34-1.2.36-1.8.03-1.19.62-1.87,1.75-2.05,1.78-.28,3.58-.74,5.35-.69,4.03.11,5.95,2.56,4.96,6.51-1.14,4.54-2.43,9.06-4,13.47-1.79,4.99-3.98,9.84-5.96,14.76-.37.91-.99,1.49-1.89,1.82-3.65,1.33-7.34,1.43-11.07.37-1.72-.49-2.84-1.64-3.48-3.27-1.73-4.46-3.6-8.88-5.14-13.41-1.85-5.44-3.4-10.99-5.15-16.47-.36-1.13-.02-1.7.9-2.27,2.42-1.51,5-1.93,7.75-1.3,2.63.6,3.74,2.58,4.36,4.97,1.7,6.61,3.4,13.21,5.11,19.82.16.6.34,1.2.52,1.8.1,0,.21,0,.31,0Z"/>
      <path class="cls-1" d="m201.36,60.79c2.97,0,5.82.04,8.68-.02.86-.02,1.25.28,1.56,1.06.74,1.87.96,3.76.51,5.71-.37,1.6-1.5,2.62-3.15,2.7-2.17.1-4.35.1-6.52.06-.9-.02-1.16.29-1.15,1.17.04,3.24,0,6.49.02,9.73.02,2.84,1.16,4.07,3.99,4.11,1.54.02,3.08-.28,4.63-.39.3-.02.75.12.92.35,2.5,3.39,1.12,8.05-2.91,9.2-4.38,1.25-8.8,1.09-13.05-.72-3.37-1.44-5.11-4.17-5.65-7.71-.19-1.24-.25-2.52-.25-3.77-.02-10.12,0-20.24-.03-30.35,0-.93.27-1.29,1.18-1.44,2.55-.43,5.09-.7,7.62-.03,2.33.62,3.32,1.82,3.45,4.21.09,1.58.07,3.18.1,4.76,0,.42.04.83.07,1.4Z"/>
      <path class="cls-1" d="m13.12,78.06c0,4.86-.03,9.72.02,14.59.01,1.03-.22,1.44-1.32,1.6-2.49.37-4.97.58-7.44.12-2.21-.41-3.42-1.83-3.64-4.08-.08-.84-.13-1.68-.13-2.52,0-9.37,0-18.73-.03-28.1,0-.91.27-1.23,1.14-1.36,2.28-.34,4.55-.63,6.87-.28,3.03.46,4.51,2.08,4.53,5.17.03,4.96,0,9.92,0,14.88h0Z"/>
      <path class="cls-1" d="m231.41,77.89c0,5.02-.02,10.05.02,15.07,0,.81-.23,1.09-1.06,1.23-2.55.44-5.09.64-7.64.17-2.28-.42-3.6-2.02-3.7-4.35-.06-1.33-.05-2.66-.05-3.99,0-8.79.01-17.57-.02-26.36,0-.87.21-1.25,1.11-1.39,2.35-.35,4.68-.61,7.06-.26,2.69.4,4.24,2.05,4.26,4.79.03,5.02,0,10.05,0,15.07h.01Z"/>
      <path class="cls-2" d="m75.48.37c.93,0,1.75-.06,2.54.04.24.03.56.45.64.74,1.12,4.45,2.2,8.92,3.29,13.4.05-.07.16-.15.18-.26,1.16-4.41,2.33-8.82,3.47-13.24.12-.48.32-.68.85-.69,2.28-.07,2.31-.1,2.9,2.09,1.08,3.97,2.11,7.94,3.17,11.91.02.08.1.14.19.26.66-2.72,1.29-5.38,1.94-8.04.45-1.86.89-3.72,1.39-5.56.07-.26.46-.59.74-.62.73-.09,1.48-.03,2.35-.03-.09.42-.14.75-.23,1.07-1.41,5.42-2.85,10.83-4.23,16.26-.17.66-.45.82-1.06.78-.77-.04-1.55-.01-2.42-.01-1.31-4.7-2.62-9.36-3.91-14-1.26,4.6-2.55,9.27-3.85,14-.96,0-1.86.03-2.76-.02-.21-.01-.55-.24-.6-.44-1.54-5.82-3.04-11.64-4.6-17.65Z"/>
      <path class="cls-2" d="m187.06,18.46V.23c2.99.14,5.95.07,8.84.48,2.91.41,4.19,2.79,3.39,5.55-.41,1.4-1.4,2.19-2.87,2.58.23.11.37.21.52.25,1.99.52,3,1.85,3.09,3.85.09,2.08-.67,3.79-2.62,4.7-.95.44-2.03.73-3.07.78-2.39.11-4.79.04-7.26.04Zm2.93-2.37c1.72-.12,3.34-.12,4.92-.37,1.29-.2,1.89-1.15,1.96-2.54.06-1.3-.45-2.19-1.61-2.59-1.72-.61-3.49-.28-5.27-.31v5.8Zm-.04-8.19c1.69-.11,3.24-.12,4.77-.34,1.1-.16,1.61-.96,1.67-2.09.06-1.15-.33-1.87-1.32-2.24-1.65-.61-3.36-.36-5.12-.34v5.01Z"/>
      <path class="cls-1" d="m6.85,41.26c4.02,0,6.84,2.65,6.86,6.47.01,3.95-2.74,6.71-6.72,6.72C2.88,54.45-.02,51.75,0,47.86c.02-3.78,2.8-6.74,6.85-6.6Z"/>
      <path class="cls-2" d="m54.21,9.28c.1-.9.13-1.81.3-2.7.68-3.7,2.95-5.88,6.68-6.44,3.91-.6,7.28.7,8.81,3.69,1.85,3.62,1.81,7.39.02,11.04-1,2.04-2.77,3.33-5.03,3.58-1.68.19-3.46.22-5.09-.15-3.27-.73-5.34-3.65-5.58-7.35-.03-.55,0-1.1,0-1.65-.04,0-.07,0-.11,0Zm13.98.23c-.09-.93-.13-1.67-.25-2.4-.48-2.87-2.16-4.4-4.96-4.53-2.74-.12-4.64,1.33-5.29,4.15-.42,1.82-.43,3.66.06,5.48.73,2.71,2.38,3.98,5.12,3.96,2.66-.02,4.27-1.32,4.93-4.05.22-.9.28-1.85.39-2.6Z"/>
      <path class="cls-2" d="m156.66,18.43V.22c2.92.15,5.83.02,8.63.52,3.7.67,5.85,3.61,6.08,7.55.12,2.09-.08,4.15-1.12,6.03-1.52,2.74-4.06,3.84-7,4.07-2.16.16-4.33.03-6.59.03Zm2.96-2.57c3.94.49,6.4-.37,7.65-2.37,1.38-2.21,1.28-6.62-.2-8.63-1.31-1.77-4.68-2.62-7.44-1.85v12.85Z"/>
      <path class="cls-2" d="m124.03,11.25v7.17h-2.91V.39c2.1,0,4.2-.03,6.3.02.77.02,1.55.18,2.29.39,1.85.53,3.01,1.75,3.3,3.68.31,2.1-.14,3.94-2.02,5.21-.4.27-.83.5-1.37.82,1.66,2.61,3.32,5.2,5.07,7.96-1.14,0-2.1.04-3.05-.03-.24-.02-.53-.32-.68-.57-1.19-1.93-2.38-3.86-3.5-5.83-.36-.63-.76-.87-1.46-.8-.61.06-1.22.01-1.97.01Zm.07-2.36c1.41-.13,2.72-.13,3.97-.38,1.31-.27,1.96-1.33,1.96-2.77,0-1.43-.58-2.34-1.97-2.61-1.28-.25-2.61-.24-3.96-.35v6.1Z"/>
      <path class="cls-2" d="m37.04.51c2.47,0,4.92-.23,7.31.06,3.18.38,4.66,2.28,4.64,5.32-.01,2.96-1.8,5.09-4.79,5.56-1.37.21-2.76.22-4.28.32v6.66h-2.88V.51Zm2.95,2.23v6.61c1.46-.2,2.86-.27,4.18-.62,1.24-.33,1.8-1.47,1.76-2.92-.04-1.39-.66-2.4-1.95-2.68-1.28-.27-2.61-.27-3.99-.39Z"/>
      <path class="cls-2" d="m150.1,15.95v2.46h-10.17V.42h10.17v2.45h-7.22v4.86h6.76v2.49h-6.74v5.73h7.21Z"/>
      <path class="cls-2" d="m104.37.42h10.15v2.44h-7.18v4.92h6.74v2.46h-6.72v5.7h7.15v2.48h-10.15V.42Z"/>
      <path class="cls-2" d="m204.02.36c.93,0,1.7.03,2.48-.01.53-.03.8.16,1.04.64,1.26,2.48,2.56,4.94,3.91,7.54.2-.34.37-.59.51-.85,1.14-2.18,2.28-4.36,3.39-6.56.28-.56.61-.83,1.26-.77.73.06,1.48.01,2.38.01-.61,1.12-1.14,2.11-1.67,3.09-1.33,2.45-2.68,4.88-3.98,7.35-.23.43-.36.97-.36,1.47-.04,2.03-.02,4.07-.02,6.15h-2.96c0-1.07-.09-2.17.02-3.24.25-2.49-.39-4.67-1.7-6.8-1.43-2.31-2.62-4.77-3.9-7.17-.12-.22-.21-.46-.39-.85Z"/>
    </g>
  </g>
</svg>