<svg width="18" height="18" viewBox="0 0 18 18" fill="none" xmlns="http://www.w3.org/2000/svg">
<path d="M4 8V2C4 0.9 4.9 0 6 0H12C13.1 0 14 0.9 14 2V4H16C17.1 4 18 4.9 18 6V16C18 17.1 17.1 18 16 18H11C10.45 18 10 17.55 10 17V14H8V17C8 17.55 7.55 18 7 18H2C0.9 18 0 17.1 0 16V10C0 8.9 0.9 8 2 8H4ZM14 16H16V14H14V16ZM14 12H16V10H14V12ZM14 8H16V6H14V8ZM10 12H12V10H10V12ZM10 8H12V6H10V8ZM10 4H12V2H10V4ZM6 12H8V10H6V12ZM6 8H8V6H6V8ZM6 4H8V2H6V4ZM2 16H4V14H2V16ZM2 12H4V10H2V12Z" fill="#0F1108"/>
</svg>
