<svg width="18" height="18" viewBox="0 0 18 18" fill="none" xmlns="http://www.w3.org/2000/svg">
<path d="M2 0H16C17.1 0 18 0.9 18 2V16C18 17.1 17.1 18 16 18H2C0.9 18 0 17.1 0 16V2C0 0.9 0.9 0 2 0ZM13 14C13.55 14 14 13.55 14 13V8C14 7.45 13.55 7 13 7C12.45 7 12 7.45 12 8V13C12 13.55 12.45 14 13 14ZM9 14C9.55 14 10 13.55 10 13V5C10 4.45 9.55 4 9 4C8.45 4 8 4.45 8 5V13C8 13.55 8.45 14 9 14ZM5 14C5.55 14 6 13.55 6 13V11C6 10.45 5.55 10 5 10C4.45 10 4 10.45 4 11V13C4 13.55 4.45 14 5 14Z" fill="#0F1108"/>
</svg>
