<svg width="18" height="18" viewBox="0 0 18 18" fill="none" xmlns="http://www.w3.org/2000/svg">
<path d="M12.5006 11.4996H11.7106L11.4306 11.2296C12.6306 9.82965 13.2506 7.91965 12.9106 5.88965C12.4406 3.10965 10.1206 0.889649 7.32063 0.549649C3.09063 0.029649 -0.469374 3.58965 0.0506256 7.81965C0.390626 10.6196 2.61063 12.9396 5.39063 13.4096C7.42063 13.7496 9.33063 13.1296 10.7306 11.9296L11.0006 12.2096V12.9996L15.2506 17.2496C15.6606 17.6596 16.3306 17.6596 16.7406 17.2496C17.1506 16.8396 17.1506 16.1696 16.7406 15.7596L12.5006 11.4996ZM6.50063 11.4996C4.01063 11.4996 2.00063 9.48965 2.00063 6.99965C2.00063 4.50965 4.01063 2.49965 6.50063 2.49965C8.99063 2.49965 11.0006 4.50965 11.0006 6.99965C11.0006 9.48965 8.99063 11.4996 6.50063 11.4996Z" fill="#0F1108"/>
</svg>
