<svg width="30" height="34" viewBox="0 0 30 34" fill="none" xmlns="http://www.w3.org/2000/svg">
<g id="Group">
<g id="Group_2">
<path id="Vector" d="M27.9044 3.93512C21.3333 3.74779 16.968 1.5024 15.5252 0.640776C15.2021 0.447866 14.8002 0.447866 14.4771 0.640776C13.0343 1.5024 8.66893 3.74779 2.09791 3.93512C1.58639 3.94973 1.16351 4.33873 1.11158 4.8478C0.671046 9.16606 -0.311035 27.7809 14.6388 33.435C14.8721 33.5233 15.1302 33.5233 15.3635 33.435C30.3133 27.781 29.3312 9.16606 28.8907 4.8478C28.8388 4.33873 28.4159 3.94973 27.9044 3.93512Z" fill="#A2AEE6"/>
</g>
<g id="Group_3">
<path id="Vector_2" d="M25.2575 6.31549C20.0346 6.16661 16.5648 4.38188 15.418 3.69703C15.1612 3.5437 14.8418 3.5437 14.585 3.69703C13.4382 4.38188 9.96845 6.16661 4.74561 6.31549C4.33907 6.32711 4.00293 6.6363 3.96169 7.04091C3.61153 10.4732 2.83092 25.8694 14.7136 30.3635C14.899 30.4336 15.1042 30.4336 15.2896 30.3635C27.1722 25.8694 26.3916 10.4732 26.0415 7.04091C26.0001 6.6363 25.664 6.32704 25.2575 6.31549Z" fill="#BCE0FD"/>
</g>
<g id="Group_4">
<path id="Vector_3" d="M14.9945 22.8405C18.5856 22.8405 21.4968 19.9293 21.4968 16.3382C21.4968 12.7471 18.5856 9.83594 14.9945 9.83594C11.4034 9.83594 8.49219 12.7471 8.49219 16.3382C8.49219 19.9293 11.4034 22.8405 14.9945 22.8405Z" fill="#1C5196"/>
</g>
<g id="Group_5">
<g id="Group_6">
<path id="Vector_4" d="M14.0947 19.3311C13.8206 19.3311 13.5567 19.2247 13.3591 19.0337L11.5963 17.33C11.176 16.9237 11.1645 16.2536 11.5708 15.8333C11.9771 15.413 12.647 15.4013 13.0676 15.8078L14.0517 16.7589L16.894 13.6803C17.2906 13.2508 17.9603 13.2241 18.3898 13.6206C18.8192 14.0172 18.846 14.6869 18.4494 15.1163L14.8724 18.9906C14.6791 19.2 14.4096 19.3225 14.1248 19.3307C14.1148 19.3309 14.1047 19.3311 14.0947 19.3311Z" fill="#A2AEE6"/>
</g>
</g>
<g id="Group_7">
<path id="Vector_5" d="M29.3825 4.79871C29.3057 4.04539 28.6751 3.46102 27.9157 3.43937C21.5283 3.25729 17.299 1.12392 15.7772 0.215156C15.2967 -0.071785 14.6997 -0.0716522 14.2194 0.215156C13.3168 0.754174 11.3757 1.77105 8.51636 2.52569C8.25086 2.59582 8.09242 2.86788 8.16248 3.13337C8.23254 3.39886 8.50473 3.55718 8.77016 3.48725C11.7475 2.7014 13.7818 1.63479 14.7293 1.06901C14.8953 0.969795 15.1014 0.969795 15.2674 1.06901C16.8562 2.01768 21.2663 4.24475 27.8874 4.43347C28.1494 4.44091 28.3668 4.64132 28.3932 4.89958C28.6134 7.05811 28.9588 12.7055 27.4151 18.5141C26.5491 21.7726 25.2146 24.5902 23.4489 26.8886C21.3241 29.6545 18.5436 31.701 15.1847 32.9713C15.0645 33.0167 14.9322 33.0167 14.8119 32.9713C11.453 31.701 8.67254 29.6545 6.54775 26.8886C4.78201 24.5902 3.44758 21.7726 2.58151 18.5141C1.0377 12.7055 1.38321 7.05797 1.60341 4.89958C1.62977 4.64132 1.84719 4.44091 2.10923 4.43347C3.58358 4.39144 5.05029 4.24315 6.46872 3.9926C6.73913 3.94486 6.91962 3.68687 6.87187 3.4164C6.82413 3.14599 6.56621 2.96537 6.29573 3.01324C4.92498 3.25536 3.50688 3.39873 2.08094 3.43937C1.32158 3.46102 0.690991 4.04539 0.614093 4.79871C0.388378 7.01149 0.0345002 12.8024 1.62048 18.7696C2.52048 22.1557 3.91288 25.0913 5.75917 27.4945C7.99832 30.4092 10.9258 32.5648 14.46 33.9015C14.6336 33.9672 14.816 34 14.9983 34C15.1807 34 15.363 33.9672 15.5365 33.9015C19.0709 32.5648 21.9983 30.4092 24.2375 27.4945C26.0837 25.0913 27.4762 22.1557 28.3762 18.7696C29.962 12.8024 29.6082 7.01149 29.3825 4.79871Z" fill="#224669"/>
<path id="Vector_6" d="M3.46126 6.99176C3.31862 8.39048 2.95472 13.349 4.26305 18.4294C4.98183 21.2203 6.0936 23.6345 7.56742 25.6052C9.36032 28.0023 11.7035 29.7602 14.532 30.83C14.6815 30.8865 14.8386 30.9148 14.9958 30.9148C15.1529 30.9148 15.3102 30.8865 15.4597 30.8299C18.2881 29.7602 20.6313 28.0024 22.4242 25.6052C23.898 23.6345 25.0098 21.2203 25.7286 18.4294C27.0369 13.349 26.673 8.39048 26.5304 6.99176C26.4641 6.34224 25.9205 5.83842 25.2659 5.81976C20.2128 5.67573 16.8699 3.98961 15.6673 3.27149C15.2531 3.02406 14.7386 3.02413 14.3244 3.27143C13.1217 3.98961 9.77881 5.67573 4.7257 5.81976C4.07114 5.83842 3.52754 6.34224 3.46126 6.99176ZM14.8343 4.12521C14.8841 4.09546 14.94 4.08059 14.9958 4.08059C15.0517 4.08059 15.1075 4.09546 15.1574 4.12528C16.4269 4.88344 19.9507 6.66312 25.2376 6.81386C25.3948 6.81831 25.5252 6.93817 25.541 7.09263C25.6794 8.44984 26.0327 13.2606 24.7655 18.1813C23.2384 24.1109 19.9891 28.0535 15.108 29.8996C15.0357 29.9271 14.956 29.927 14.8837 29.8997C10.0025 28.0535 6.75321 24.1109 5.22614 18.1813C3.95891 13.2607 4.31219 8.44991 4.45065 7.09263C4.46639 6.93824 4.59681 6.81831 4.75412 6.81386C10.0409 6.66312 13.5647 4.88344 14.8343 4.12521Z" fill="#224669"/>
<path id="Vector_7" d="M14.9996 23.3349C17.2682 23.3349 19.4058 22.2278 20.7176 20.3734C20.8761 20.1492 20.823 19.839 20.5988 19.6804C20.3746 19.5217 20.0643 19.5749 19.9057 19.7992C18.78 21.3904 16.946 22.3405 14.9996 22.3405C11.6884 22.3405 8.99456 19.6467 8.99456 16.3355C8.99456 13.0243 11.6884 10.3304 14.9996 10.3304C18.3108 10.3304 21.0046 13.0243 21.0046 16.3355C21.0046 16.8533 20.9388 17.3672 20.8087 17.863C20.7391 18.1286 20.898 18.4004 21.1636 18.4701C21.4292 18.5395 21.701 18.3809 21.7707 18.1152C21.9222 17.5371 21.9991 16.9384 21.9991 16.3355C21.9991 12.476 18.8591 9.33594 14.9995 9.33594C11.1399 9.33594 8 12.4759 8 16.3355C8 20.1951 11.1401 23.3349 14.9996 23.3349Z" fill="#224669"/>
<path id="Vector_8" d="M17.6062 12.845C17.191 12.8616 16.8071 13.0389 16.5253 13.3442L14.028 16.0489L13.4096 15.4514C12.7928 14.8554 11.8059 14.8721 11.2097 15.4889C10.6137 16.1057 10.6304 17.0925 11.2473 17.6887L13.01 19.3924C13.3016 19.6743 13.6856 19.8295 14.0912 19.8295C14.1066 19.8295 14.122 19.8293 14.1355 19.8289C14.5516 19.817 14.9521 19.6348 15.2342 19.3291L18.8113 15.4548C19.3932 14.8246 19.3539 13.8384 18.7236 13.2564C18.4183 12.9745 18.021 12.8287 17.6062 12.845ZM18.0806 14.7803C18.0806 14.7803 14.5036 18.6545 14.5035 18.6546C14.2903 18.8855 13.9268 18.8955 13.7011 18.6774C13.7 18.6763 11.9384 16.9737 11.9384 16.9737C11.7158 16.7585 11.7097 16.4025 11.9247 16.18C12.0347 16.0663 12.1815 16.009 12.3285 16.009C12.469 16.009 12.6097 16.0614 12.7185 16.1664C12.7185 16.1664 13.7012 17.1162 13.7026 17.1176C13.8979 17.3063 14.2288 17.2973 14.4134 17.0974C14.4134 17.0974 17.2469 14.0285 17.2559 14.0188C17.7361 13.4988 18.5754 14.2445 18.0806 14.7803Z" fill="#224669"/>
</g>
</g>
</svg>
