<svg width="20" height="20" viewBox="0 0 20 20" fill="none" xmlns="http://www.w3.org/2000/svg">
<path d="M2.56918 10.98C2.52918 10.66 2.49918 10.34 2.49918 10C2.49918 9.66 2.52918 9.34 2.56918 9.02L0.459183 7.37C0.269182 7.22 0.219183 6.95 0.339184 6.73L2.33918 3.27C2.45918 3.05 2.72919 2.97 2.94918 3.05L5.43918 4.05C5.95918 3.65 6.51918 3.32 7.12918 3.07L7.50918 0.42C7.53918 0.18 7.74918 0 7.99918 0H11.9992C12.2492 0 12.4592 0.18 12.4892 0.42L12.8692 3.07C13.4792 3.32 14.0392 3.66 14.5592 4.05L17.0492 3.05C17.2792 2.96 17.5392 3.05 17.6592 3.27L19.6592 6.73C19.7892 6.95 19.7292 7.22 19.5392 7.37L17.4292 9.02C17.4692 9.34 17.4992 9.67 17.4992 10C17.4992 10.33 17.4692 10.66 17.4292 10.98L19.5392 12.63C19.7292 12.78 19.7792 13.05 19.6592 13.27L17.6592 16.73C17.5392 16.95 17.2692 17.03 17.0492 16.95L14.5592 15.95C14.0392 16.35 13.4792 16.68 12.8692 16.93L12.4892 19.58C12.4592 19.82 12.2492 20 11.9992 20H7.99918C7.74918 20 7.53918 19.82 7.50918 19.58L7.12918 16.93C6.51918 16.68 5.95918 16.34 5.43918 15.95L2.94918 16.95C2.71918 17.04 2.45918 16.95 2.33918 16.73L0.339184 13.27C0.219183 13.05 0.269182 12.78 0.459183 12.63L2.56918 10.98ZM9.99918 13.5C11.9292 13.5 13.4992 11.93 13.4992 10C13.4992 8.07 11.9292 6.5 9.99918 6.5C8.06918 6.5 6.49918 8.07 6.49918 10C6.49918 11.93 8.06918 13.5 9.99918 13.5Z" fill="#0F1108"/>
</svg>
