<svg width="22" height="22" viewBox="0 0 22 22" fill="none" xmlns="http://www.w3.org/2000/svg">
<path d="M7 10.5C7 9.67 6.33 9 5.5 9C4.67 9 4 9.67 4 10.5C4 11.33 4.67 12 5.5 12C6.33 12 7 11.33 7 10.5ZM14 5.5C14 4.67 13.33 4 12.5 4H9.5C8.67 4 8 4.67 8 5.5C8 6.33 8.67 7 9.5 7H12.5C13.33 7 14 6.33 14 5.5ZM7.5 14C6.67 14 6 14.67 6 15.5C6 16.33 6.67 17 7.5 17C8.33 17 9 16.33 9 15.5C9 14.67 8.33 14 7.5 14ZM11 0C4.93 0 0 4.93 0 11C0 17.07 4.93 22 11 22C17.07 22 22 17.07 22 11C22 4.93 17.07 0 11 0ZM11 20C6.04 20 2 15.96 2 11C2 6.04 6.04 2 11 2C15.96 2 20 6.04 20 11C20 15.96 15.96 20 11 20ZM16.5 9C15.67 9 15 9.67 15 10.5C15 11.33 15.67 12 16.5 12C17.33 12 18 11.33 18 10.5C18 9.67 17.33 9 16.5 9ZM14.5 14C13.67 14 13 14.67 13 15.5C13 16.33 13.67 17 14.5 17C15.33 17 16 16.33 16 15.5C16 14.67 15.33 14 14.5 14Z" fill="white"/>
</svg>
