<svg id="Component_4_1" data-name="Component 4 – 1" xmlns="http://www.w3.org/2000/svg" width="50" height="50" viewBox="0 0 50 50">
  <circle id="Ellipse_16" data-name="Ellipse 16" cx="25" cy="25" r="25" fill="#234e95"/>
  <path id="Path_18" data-name="Path 18" d="M8,5A1,1,0,0,0,8,7h5.586L12.293,8.293a1,1,0,1,0,1.414,1.414l3-3a1,1,0,0,0,0-1.414l-3-3a1,1,0,1,0-1.414,1.414L13.586,5Zm4,10a1,1,0,0,0,0-2H6.414l1.293-1.293a1,1,0,1,0-1.414-1.414l-3,3a1,1,0,0,0,0,1.414l3,3a1,1,0,1,0,1.414-1.414L6.414,15Z" transform="translate(15 15)" fill="#fff"/>
</svg>
