<svg id="Component_6_1" data-name="Component 6 – 1" xmlns="http://www.w3.org/2000/svg" width="50" height="50" viewBox="0 0 50 50">
  <circle id="Ellipse_18" data-name="Ellipse 18" cx="25" cy="25" r="25" fill="#234e95"/>
  <path id="Path_21" data-name="Path 21" d="M18,10a8,8,0,1,1-8-8A8,8,0,0,1,18,10Zm-2,0a5.973,5.973,0,0,1-.668,2.754l-1.524-1.525a4,4,0,0,0,.078-2.183l1.562-1.562A5.971,5.971,0,0,1,16,10Zm-5.165,3.913,1.58,1.58a6.008,6.008,0,0,1-4.931-.045l1.562-1.562a4.006,4.006,0,0,0,1.789.027Zm-4.677-2.8a4,4,0,0,1-.041-2.08l-.08.08L4.507,7.584a6.011,6.011,0,0,0,.112,5.073l1.54-1.54Zm1.088-6.45a6.016,6.016,0,0,1,5.411-.048l-1.54,1.54a4,4,0,0,0-2.346.033L7.246,4.668ZM12,10a2,2,0,1,1-2-2A2,2,0,0,1,12,10Z" transform="translate(15 15)" fill="#fff" fill-rule="evenodd"/>
</svg>
